<?plantuml 1.2026.2?><svg xmlns="http://www.w3.org/2000/svg" xmlns:xlink="http://www.w3.org/1999/xlink" contentStyleType="text/css" data-diagram-type="ACTIVITY" height="823px" preserveAspectRatio="none" style="width:449px;height:823px;background:#FFFFFF;" version="1.1" viewBox="0 0 449 823" width="449px" zoomAndPan="magnify"><title>Activity Diagram: Commerce Platform</title><defs/><g><g class="title" data-source-line="3"><text fill="#000000" font-family="Verdana" font-size="22" font-weight="bold" lengthAdjust="spacing" textLength="416.2415" x="15" y="38.5181">Activity Diagram: Commerce Platform</text></g><ellipse cx="229.6207" cy="65.9641" fill="#FFFFFF" rx="10" ry="10" style="stroke:#000000;stroke-width:1;"/><line style="stroke:#000000;stroke-width:1.5;" x1="118.1662" x2="350.3974" y1="95.9641" y2="95.9641"/><rect fill="#FFFFFF" height="649.1216" style="stroke:#000000;stroke-width:1;" width="241.5533" x="7.3896" y="105.9641"/><path d="M81.8874,105.9641 L81.8874,118.032 L71.8874,128.032 L7.3896,128.032" fill="none" style="stroke:#000000;stroke-width:1;"/><text fill="#000000" font-family="Verdana" font-size="14" lengthAdjust="spacing" textLength="64.4978" x="10.3896" y="121.93">Customer</text><rect fill="#FFFFFF" height="36.3441" rx="12.5" ry="12.5" style="stroke:#000000;stroke-width:1;" width="84.5245" x="75.904" y="145.032"/><text fill="#000000" font-family="Verdana" font-size="12" lengthAdjust="spacing" textLength="64.5245" x="85.904" y="167.8601">Review cart</text><rect fill="#FFFFFF" height="36.3441" rx="12.5" ry="12.5" style="stroke:#000000;stroke-width:1;" width="94.4725" x="70.93" y="201.3761"/><text fill="#000000" font-family="Verdana" font-size="12" lengthAdjust="spacing" textLength="74.4725" x="80.93" y="224.2042">Submit order</text><rect fill="#FFFFFF" height="36.3441" rx="12.5" ry="12.5" style="stroke:#000000;stroke-width:1;" width="127.6408" x="54.3458" y="307.2112"/><text fill="#000000" font-family="Verdana" font-size="12" lengthAdjust="spacing" textLength="107.6408" x="64.3458" y="330.0393">Authorize payment</text><rect fill="#FFFFFF" height="36.3441" rx="12.5" ry="12.5" style="stroke:#000000;stroke-width:1;" width="197.5533" x="19.3896" y="378.5553"/><text fill="#000000" font-family="Verdana" font-size="12" lengthAdjust="spacing" textLength="177.5533" x="29.3896" y="401.3834">Confirm payment authorization</text><polygon fill="#FFFFFF" points="45.3522,257.7202,190.9802,257.7202,202.9802,269.7202,190.9802,281.7202,45.3522,281.7202,33.3522,269.7202,45.3522,257.7202" style="stroke:#000000;stroke-width:1;"/><text fill="#000000" font-family="Verdana" font-size="11" lengthAdjust="spacing" textLength="13.4529" x="122.1662" y="293.4792">no</text><text fill="#000000" font-family="Verdana" font-size="11" lengthAdjust="spacing" textLength="145.628" x="45.3522" y="273.9882">Payment already authorized</text><text fill="#000000" font-family="Verdana" font-size="11" lengthAdjust="spacing" textLength="17.0829" x="202.9802" y="266.4973">yes</text><polygon fill="#FFFFFF" points="118.1662,440.3904,130.1662,452.3904,118.1662,464.3904,106.1662,452.3904,118.1662,440.3904" style="stroke:#000000;stroke-width:1;"/><rect fill="#FFFFFF" height="36.3441" rx="12.5" ry="12.5" style="stroke:#000000;stroke-width:1;" width="121.1487" x="57.5919" y="519.3904"/><text fill="#000000" font-family="Verdana" font-size="12" lengthAdjust="spacing" textLength="101.1487" x="67.5919" y="542.2185">Reserve inventory</text><rect fill="#FFFFFF" height="36.3441" rx="12.5" ry="12.5" style="stroke:#000000;stroke-width:1;" width="113.6367" x="61.3479" y="590.7345"/><text fill="#000000" font-family="Verdana" font-size="12" lengthAdjust="spacing" textLength="93.6367" x="71.3479" y="613.5626">Create shipment</text><rect fill="#FFFFFF" height="36.3441" rx="12.5" ry="12.5" style="stroke:#000000;stroke-width:1;" width="149.9009" x="43.2158" y="650.3975"/><text fill="#000000" font-family="Verdana" font-size="12" lengthAdjust="spacing" textLength="129.9009" x="53.2158" y="673.2256">Confirm shipment plan</text><rect fill="#FFFFFF" height="36.3441" rx="12.5" ry="12.5" style="stroke:#000000;stroke-width:1;" width="158.385" x="38.9737" y="706.7416"/><text fill="#000000" font-family="Verdana" font-size="12" lengthAdjust="spacing" textLength="138.385" x="48.9737" y="729.5697">Send order confirmation</text><rect fill="#FFFFFF" height="389.1074" style="stroke:#000000;stroke-width:1;" width="182.909" x="258.9428" y="249.9712"/><path d="M363.5125,249.9712 L363.5125,262.0391 L353.5125,272.0391 L258.9428,272.0391" fill="none" style="stroke:#000000;stroke-width:1;"/><text fill="#000000" font-family="Verdana" font-size="14" lengthAdjust="spacing" textLength="94.5697" x="261.9428" y="265.9372">Support agent</text><rect fill="#FFFFFF" height="36.3441" rx="12.5" ry="12.5" style="stroke:#000000;stroke-width:1;" width="151.4369" x="274.6789" y="289.0391"/><text fill="#000000" font-family="Verdana" font-size="12" lengthAdjust="spacing" textLength="131.4369" x="284.6789" y="311.8672">Validate return window</text><rect fill="#FFFFFF" height="36.3441" rx="12.5" ry="12.5" style="stroke:#000000;stroke-width:1;" width="106.4726" x="297.161" y="360.3832"/><text fill="#000000" font-family="Verdana" font-size="12" lengthAdjust="spacing" textLength="86.4726" x="307.161" y="383.2113">Approve return</text><rect fill="#FFFFFF" height="36.3441" rx="12.5" ry="12.5" style="stroke:#000000;stroke-width:1;" width="90.9325" x="304.9311" y="431.7274"/><text fill="#000000" font-family="Verdana" font-size="12" lengthAdjust="spacing" textLength="70.9325" x="314.9311" y="454.5555">Issue refund</text><rect fill="#FFFFFF" height="36.3441" rx="12.5" ry="12.5" style="stroke:#000000;stroke-width:1;" width="106.8446" x="296.975" y="488.0715"/><text fill="#000000" font-family="Verdana" font-size="12" lengthAdjust="spacing" textLength="86.8446" x="306.975" y="510.8996">Confirm refund</text><rect fill="#FFFFFF" height="36.3441" rx="12.5" ry="12.5" style="stroke:#000000;stroke-width:1;" width="162.909" x="268.9428" y="559.4156"/><text fill="#000000" font-family="Verdana" font-size="12" lengthAdjust="spacing" textLength="142.909" x="278.9428" y="582.2437">Send return confirmation</text><line style="stroke:#000000;stroke-width:1.5;" x1="118.1662" x2="350.3974" y1="775.0857" y2="775.0857"/><ellipse cx="229.6207" cy="806.0857" fill="none" rx="11" ry="11" style="stroke:#000000;stroke-width:1;"/><ellipse cx="229.6207" cy="806.0857" fill="#FFFFFF" rx="6" ry="6" style="stroke:#000000;stroke-width:1;"/><line style="stroke:#000000;stroke-width:1;" x1="118.1662" x2="118.1662" y1="181.3761" y2="201.3761"/><polygon fill="#000000" points="114.1662,191.3761,118.1662,201.3761,122.1662,191.3761,118.1662,195.3761" style="stroke:#000000;stroke-width:1;"/><line style="stroke:#000000;stroke-width:1;" x1="118.1662" x2="118.1662" y1="343.5553" y2="378.5553"/><polygon fill="#000000" points="114.1662,368.5553,118.1662,378.5553,122.1662,368.5553,118.1662,372.5553" style="stroke:#000000;stroke-width:1;"/><line style="stroke:#000000;stroke-width:1;" x1="118.1662" x2="118.1662" y1="281.7202" y2="307.2112"/><polygon fill="#000000" points="114.1662,297.2112,118.1662,307.2112,122.1662,297.2112,118.1662,301.2112" style="stroke:#000000;stroke-width:1;"/><line style="stroke:#000000;stroke-width:1;" x1="202.9802" x2="226.9428" y1="269.7202" y2="269.7202"/><polygon fill="#000000" points="222.9428,351.0553,226.9428,361.0553,230.9428,351.0553,226.9428,355.0553" style="stroke:#000000;stroke-width:1;"/><line style="stroke:#000000;stroke-width:1;" x1="226.9428" x2="226.9428" y1="269.7202" y2="452.3904"/><line style="stroke:#000000;stroke-width:1;" x1="226.9428" x2="130.1662" y1="452.3904" y2="452.3904"/><polygon fill="#000000" points="140.1662,448.3904,130.1662,452.3904,140.1662,456.3904,136.1662,452.3904" style="stroke:#000000;stroke-width:1;"/><line style="stroke:#000000;stroke-width:1;" x1="118.1662" x2="118.1662" y1="414.8994" y2="440.3904"/><polygon fill="#000000" points="114.1662,430.3904,118.1662,440.3904,122.1662,430.3904,118.1662,434.3904" style="stroke:#000000;stroke-width:1;"/><line style="stroke:#000000;stroke-width:1;" x1="118.1662" x2="118.1662" y1="237.7202" y2="257.7202"/><polygon fill="#000000" points="114.1662,247.7202,118.1662,257.7202,122.1662,247.7202,118.1662,251.7202" style="stroke:#000000;stroke-width:1;"/><line style="stroke:#000000;stroke-width:1;" x1="118.1662" x2="118.1662" y1="464.3904" y2="519.3904"/><polygon fill="#000000" points="114.1662,509.3904,118.1662,519.3904,122.1662,509.3904,118.1662,513.3904" style="stroke:#000000;stroke-width:1;"/><line style="stroke:#000000;stroke-width:1;" x1="118.1662" x2="118.1662" y1="555.7345" y2="590.7345"/><polygon fill="#000000" points="114.1662,580.7345,118.1662,590.7345,122.1662,580.7345,118.1662,584.7345" style="stroke:#000000;stroke-width:1;"/><line style="stroke:#000000;stroke-width:1;" x1="118.1662" x2="118.1662" y1="627.0786" y2="650.3975"/><polygon fill="#000000" points="114.1662,640.3975,118.1662,650.3975,122.1662,640.3975,118.1662,644.3975" style="stroke:#000000;stroke-width:1;"/><line style="stroke:#000000;stroke-width:1;" x1="118.1662" x2="118.1662" y1="686.7416" y2="706.7416"/><polygon fill="#000000" points="114.1662,696.7416,118.1662,706.7416,122.1662,696.7416,118.1662,700.7416" style="stroke:#000000;stroke-width:1;"/><line style="stroke:#000000;stroke-width:1;" x1="118.1662" x2="118.1662" y1="743.0857" y2="775.0857"/><polygon fill="#000000" points="114.1662,765.0857,118.1662,775.0857,122.1662,765.0857,118.1662,769.0857" style="stroke:#000000;stroke-width:1;"/><line style="stroke:#000000;stroke-width:1;" x1="350.3974" x2="350.3974" y1="325.3832" y2="360.3832"/><polygon fill="#000000" points="346.3974,350.3832,350.3974,360.3832,354.3974,350.3832,350.3974,354.3832" style="stroke:#000000;stroke-width:1;"/><line style="stroke:#000000;stroke-width:1;" x1="350.3974" x2="350.3974" y1="396.7274" y2="431.7274"/><polygon fill="#000000" points="346.3974,421.7274,350.3974,431.7274,354.3974,421.7274,350.3974,425.7274" style="stroke:#000000;stroke-width:1;"/><line style="stroke:#000000;stroke-width:1;" x1="350.3974" x2="350.3974" y1="468.0715" y2="488.0715"/><polygon fill="#000000" points="346.3974,478.0715,350.3974,488.0715,354.3974,478.0715,350.3974,482.0715" style="stroke:#000000;stroke-width:1;"/><line style="stroke:#000000;stroke-width:1;" x1="350.3974" x2="350.3974" y1="524.4156" y2="559.4156"/><polygon fill="#000000" points="346.3974,549.4156,350.3974,559.4156,354.3974,549.4156,350.3974,553.4156" style="stroke:#000000;stroke-width:1;"/><line style="stroke:#000000;stroke-width:1;" x1="350.3974" x2="350.3974" y1="595.7597" y2="775.0857"/><polygon fill="#000000" points="346.3974,765.0857,350.3974,775.0857,354.3974,765.0857,350.3974,769.0857" style="stroke:#000000;stroke-width:1;"/><line style="stroke:#000000;stroke-width:1;" x1="118.1662" x2="118.1662" y1="97.4641" y2="145.032"/><polygon fill="#000000" points="114.1662,135.032,118.1662,145.032,122.1662,135.032,118.1662,139.032" style="stroke:#000000;stroke-width:1;"/><line style="stroke:#000000;stroke-width:1;" x1="350.3974" x2="350.3974" y1="97.4641" y2="289.0391"/><polygon fill="#000000" points="346.3974,279.0391,350.3974,289.0391,354.3974,279.0391,350.3974,283.0391" style="stroke:#000000;stroke-width:1;"/><line style="stroke:#000000;stroke-width:1;" x1="229.6207" x2="229.6207" y1="75.9641" y2="95.9641"/><polygon fill="#000000" points="225.6207,85.9641,229.6207,95.9641,233.6207,85.9641,229.6207,89.9641" style="stroke:#000000;stroke-width:1;"/><line style="stroke:#000000;stroke-width:1;" x1="229.6207" x2="229.6207" y1="776.5857" y2="795.0857"/><polygon fill="#000000" points="225.6207,785.0857,229.6207,795.0857,233.6207,785.0857,229.6207,789.0857" style="stroke:#000000;stroke-width:1;"/><?plantuml-src TP91Rzim38Nl_XLSBqjlExSdmpsiG8CLoRRhm5YqGrIM18fou0txxvCjEyiAp0V3Udnw_4Jh8xnQTFfj_m8zEH9KCd2QOF_bwMiLtzW551nWJp5YJxNbta5BJaagPRK4TQiyiaxmnDXdwmCqVXX8MfgJjVCoL1_qJ0D1iCZk9hIr66EjAdnAIi-jTqV-IV2fYegYLGoMjShMt8YzWxicHVKv-Wv-LP2VXmEDJ1Tei-MnACTq6bZ1Yo4f4dUmUyLfoCo0LWZD19Zqx2NtClUGqHpi9ehtYvri9DWvNrOviTwy44hAurPflEjOXas_fk9CMrpa37VBbyKJMMZErBxvf3_OZNcBb-b0aMHSjcndcWM2gsCzMPFHbI2UEVobk39iyZnZjyqYTo-JWBRORiZUyMHhzRjC7B2VVzFDt8yf12zp8NUu3lyxMZOpaf0cSN1XP_nbxLs787xSQglu76EQfIuvyux_7t41NrF_H_uPdR5qM4mhVNwNAvDlIVW3?></g></svg>