<?plantuml 1.2026.1?><svg xmlns="http://www.w3.org/2000/svg" xmlns:xlink="http://www.w3.org/1999/xlink" contentStyleType="text/css" data-diagram-type="ACTIVITY" height="823px" preserveAspectRatio="none" style="width:470px;height:823px;background:#FFFFFF;" version="1.1" viewBox="0 0 470 823" width="470px" zoomAndPan="magnify"><title>Activity Diagram: "Commerce Platform"</title><defs/><g><g class="title" data-source-line="3"><text fill="#000000" font-family="Verdana" font-size="22" font-weight="bold" lengthAdjust="spacing" textLength="437.3175" x="15" y="38.5181">Activity Diagram: "Commerce Platform"</text></g><ellipse cx="240.1588" cy="65.9641" fill="#FFFFFF" rx="10" ry="10" style="stroke:#000000;stroke-width:1;"/><line style="stroke:#000000;stroke-width:1.5;" x1="130.0783" x2="357.3114" y1="95.9641" y2="95.9641"/><rect fill="#FFFFFF" height="649.1216" style="stroke:#000000;stroke-width:1;" width="234.3052" x="22.9257" y="105.9641"/><path d="M97.4234,105.9641 L97.4234,118.032 L87.4234,128.032 L22.9257,128.032" fill="none" style="stroke:#000000;stroke-width:1;"/><text fill="#000000" font-family="Verdana" font-size="14" lengthAdjust="spacing" textLength="64.4978" x="25.9257" y="121.93">Customer</text><rect fill="#FFFFFF" height="36.3441" rx="12.5" ry="12.5" style="stroke:#000000;stroke-width:1;" width="80.7204" x="89.718" y="145.032"/><text fill="#000000" font-family="Verdana" font-size="12" lengthAdjust="spacing" textLength="60.7204" x="99.718" y="167.8601">reviewCart</text><rect fill="#FFFFFF" height="36.3441" rx="12.5" ry="12.5" style="stroke:#000000;stroke-width:1;" width="92.6245" x="83.766" y="201.3761"/><text fill="#000000" font-family="Verdana" font-size="12" lengthAdjust="spacing" textLength="72.6245" x="93.766" y="224.2042">submitOrder</text><rect fill="#FFFFFF" height="36.3441" rx="12.5" ry="12.5" style="stroke:#000000;stroke-width:1;" width="123.4647" x="68.3459" y="307.2112"/><text fill="#000000" font-family="Verdana" font-size="12" lengthAdjust="spacing" textLength="103.4647" x="78.3459" y="330.0393">authorizePayment</text><rect fill="#FFFFFF" height="36.3441" rx="12.5" ry="12.5" style="stroke:#000000;stroke-width:1;" width="190.3052" x="34.9257" y="378.5553"/><text fill="#000000" font-family="Verdana" font-size="12" lengthAdjust="spacing" textLength="170.3052" x="44.9257" y="401.3834">confirmPaymentAuthorization</text><polygon fill="#FFFFFF" points="57.2643,257.7202,202.8922,257.7202,214.8922,269.7202,202.8922,281.7202,57.2643,281.7202,45.2643,269.7202,57.2643,257.7202" style="stroke:#000000;stroke-width:1;"/><text fill="#000000" font-family="Verdana" font-size="11" lengthAdjust="spacing" textLength="13.4529" x="134.0783" y="293.4792">no</text><text fill="#000000" font-family="Verdana" font-size="11" lengthAdjust="spacing" textLength="145.628" x="57.2643" y="273.9882">Payment already authorized</text><text fill="#000000" font-family="Verdana" font-size="11" lengthAdjust="spacing" textLength="17.0829" x="214.8922" y="266.4973">yes</text><polygon fill="#FFFFFF" points="130.0783,440.3904,142.0783,452.3904,130.0783,464.3904,118.0783,452.3904,130.0783,440.3904" style="stroke:#000000;stroke-width:1;"/><rect fill="#FFFFFF" height="36.3441" rx="12.5" ry="12.5" style="stroke:#000000;stroke-width:1;" width="116.4927" x="71.8319" y="519.3904"/><text fill="#000000" font-family="Verdana" font-size="12" lengthAdjust="spacing" textLength="96.4927" x="81.8319" y="542.2185">reserveInventory</text><rect fill="#FFFFFF" height="36.3441" rx="12.5" ry="12.5" style="stroke:#000000;stroke-width:1;" width="109.5326" x="75.3119" y="590.7345"/><text fill="#000000" font-family="Verdana" font-size="12" lengthAdjust="spacing" textLength="89.5326" x="85.3119" y="613.5626">createShipment</text><rect fill="#FFFFFF" height="36.3441" rx="12.5" ry="12.5" style="stroke:#000000;stroke-width:1;" width="142.5569" x="58.7998" y="650.3975"/><text fill="#000000" font-family="Verdana" font-size="12" lengthAdjust="spacing" textLength="122.5569" x="68.7998" y="673.2256">confirmShipmentPlan</text><rect fill="#FFFFFF" height="36.3441" rx="12.5" ry="12.5" style="stroke:#000000;stroke-width:1;" width="155.241" x="52.4578" y="706.7416"/><text fill="#000000" font-family="Verdana" font-size="12" lengthAdjust="spacing" textLength="135.241" x="62.4578" y="729.5697">sendOrderConfirmation</text><rect fill="#FFFFFF" height="389.1074" style="stroke:#000000;stroke-width:1;" width="180.161" x="267.2309" y="249.9712"/><path d="M369.2525,249.9712 L369.2525,262.0391 L359.2525,272.0391 L267.2309,272.0391" fill="none" style="stroke:#000000;stroke-width:1;"/><text fill="#000000" font-family="Verdana" font-size="14" lengthAdjust="spacing" textLength="92.0217" x="270.2309" y="265.9372">SupportAgent</text><rect fill="#FFFFFF" height="36.3441" rx="12.5" ry="12.5" style="stroke:#000000;stroke-width:1;" width="148.3289" x="283.1469" y="289.0391"/><text fill="#000000" font-family="Verdana" font-size="12" lengthAdjust="spacing" textLength="128.3289" x="293.1469" y="311.8672">validateReturnWindow</text><rect fill="#FFFFFF" height="36.3441" rx="12.5" ry="12.5" style="stroke:#000000;stroke-width:1;" width="104.9246" x="304.8491" y="360.3832"/><text fill="#000000" font-family="Verdana" font-size="12" lengthAdjust="spacing" textLength="84.9246" x="314.8491" y="383.2113">approveReturn</text><rect fill="#FFFFFF" height="36.3441" rx="12.5" ry="12.5" style="stroke:#000000;stroke-width:1;" width="89.3485" x="312.6371" y="431.7274"/><text fill="#000000" font-family="Verdana" font-size="12" lengthAdjust="spacing" textLength="69.3485" x="322.6371" y="454.5555">issueRefund</text><rect fill="#FFFFFF" height="36.3441" rx="12.5" ry="12.5" style="stroke:#000000;stroke-width:1;" width="104.4086" x="305.1071" y="488.0715"/><text fill="#000000" font-family="Verdana" font-size="12" lengthAdjust="spacing" textLength="84.4086" x="315.1071" y="510.8996">confirmRefund</text><rect fill="#FFFFFF" height="36.3441" rx="12.5" ry="12.5" style="stroke:#000000;stroke-width:1;" width="160.161" x="277.2309" y="559.4156"/><text fill="#000000" font-family="Verdana" font-size="12" lengthAdjust="spacing" textLength="140.161" x="287.2309" y="582.2437">sendReturnConfirmation</text><line style="stroke:#000000;stroke-width:1.5;" x1="130.0783" x2="357.3114" y1="775.0857" y2="775.0857"/><ellipse cx="240.1588" cy="806.0857" fill="none" rx="11" ry="11" style="stroke:#000000;stroke-width:1;"/><ellipse cx="240.1588" cy="806.0857" fill="#FFFFFF" rx="6" ry="6" style="stroke:#000000;stroke-width:1;"/><line style="stroke:#000000;stroke-width:1;" x1="130.0783" x2="130.0783" y1="181.3761" y2="201.3761"/><polygon fill="#000000" points="126.0783,191.3761,130.0783,201.3761,134.0783,191.3761,130.0783,195.3761" style="stroke:#000000;stroke-width:1;"/><line style="stroke:#000000;stroke-width:1;" x1="130.0783" x2="130.0783" y1="343.5553" y2="378.5553"/><polygon fill="#000000" points="126.0783,368.5553,130.0783,378.5553,134.0783,368.5553,130.0783,372.5553" style="stroke:#000000;stroke-width:1;"/><line style="stroke:#000000;stroke-width:1;" x1="130.0783" x2="130.0783" y1="281.7202" y2="307.2112"/><polygon fill="#000000" points="126.0783,297.2112,130.0783,307.2112,134.0783,297.2112,130.0783,301.2112" style="stroke:#000000;stroke-width:1;"/><line style="stroke:#000000;stroke-width:1;" x1="214.8922" x2="235.2309" y1="269.7202" y2="269.7202"/><polygon fill="#000000" points="231.2309,351.0553,235.2309,361.0553,239.2309,351.0553,235.2309,355.0553" style="stroke:#000000;stroke-width:1;"/><line style="stroke:#000000;stroke-width:1;" x1="235.2309" x2="235.2309" y1="269.7202" y2="452.3904"/><line style="stroke:#000000;stroke-width:1;" x1="235.2309" x2="142.0783" y1="452.3904" y2="452.3904"/><polygon fill="#000000" points="152.0783,448.3904,142.0783,452.3904,152.0783,456.3904,148.0783,452.3904" style="stroke:#000000;stroke-width:1;"/><line style="stroke:#000000;stroke-width:1;" x1="130.0783" x2="130.0783" y1="414.8994" y2="440.3904"/><polygon fill="#000000" points="126.0783,430.3904,130.0783,440.3904,134.0783,430.3904,130.0783,434.3904" style="stroke:#000000;stroke-width:1;"/><line style="stroke:#000000;stroke-width:1;" x1="130.0783" x2="130.0783" y1="237.7202" y2="257.7202"/><polygon fill="#000000" points="126.0783,247.7202,130.0783,257.7202,134.0783,247.7202,130.0783,251.7202" style="stroke:#000000;stroke-width:1;"/><line style="stroke:#000000;stroke-width:1;" x1="130.0783" x2="130.0783" y1="464.3904" y2="519.3904"/><polygon fill="#000000" points="126.0783,509.3904,130.0783,519.3904,134.0783,509.3904,130.0783,513.3904" style="stroke:#000000;stroke-width:1;"/><line style="stroke:#000000;stroke-width:1;" x1="130.0783" x2="130.0783" y1="555.7345" y2="590.7345"/><polygon fill="#000000" points="126.0783,580.7345,130.0783,590.7345,134.0783,580.7345,130.0783,584.7345" style="stroke:#000000;stroke-width:1;"/><line style="stroke:#000000;stroke-width:1;" x1="130.0783" x2="130.0783" y1="627.0786" y2="650.3975"/><polygon fill="#000000" points="126.0783,640.3975,130.0783,650.3975,134.0783,640.3975,130.0783,644.3975" style="stroke:#000000;stroke-width:1;"/><line style="stroke:#000000;stroke-width:1;" x1="130.0783" x2="130.0783" y1="686.7416" y2="706.7416"/><polygon fill="#000000" points="126.0783,696.7416,130.0783,706.7416,134.0783,696.7416,130.0783,700.7416" style="stroke:#000000;stroke-width:1;"/><line style="stroke:#000000;stroke-width:1;" x1="130.0783" x2="130.0783" y1="743.0857" y2="775.0857"/><polygon fill="#000000" points="126.0783,765.0857,130.0783,775.0857,134.0783,765.0857,130.0783,769.0857" style="stroke:#000000;stroke-width:1;"/><line style="stroke:#000000;stroke-width:1;" x1="357.3114" x2="357.3114" y1="325.3832" y2="360.3832"/><polygon fill="#000000" points="353.3114,350.3832,357.3114,360.3832,361.3114,350.3832,357.3114,354.3832" style="stroke:#000000;stroke-width:1;"/><line style="stroke:#000000;stroke-width:1;" x1="357.3114" x2="357.3114" y1="396.7274" y2="431.7274"/><polygon fill="#000000" points="353.3114,421.7274,357.3114,431.7274,361.3114,421.7274,357.3114,425.7274" style="stroke:#000000;stroke-width:1;"/><line style="stroke:#000000;stroke-width:1;" x1="357.3114" x2="357.3114" y1="468.0715" y2="488.0715"/><polygon fill="#000000" points="353.3114,478.0715,357.3114,488.0715,361.3114,478.0715,357.3114,482.0715" style="stroke:#000000;stroke-width:1;"/><line style="stroke:#000000;stroke-width:1;" x1="357.3114" x2="357.3114" y1="524.4156" y2="559.4156"/><polygon fill="#000000" points="353.3114,549.4156,357.3114,559.4156,361.3114,549.4156,357.3114,553.4156" style="stroke:#000000;stroke-width:1;"/><line style="stroke:#000000;stroke-width:1;" x1="357.3114" x2="357.3114" y1="595.7597" y2="775.0857"/><polygon fill="#000000" points="353.3114,765.0857,357.3114,775.0857,361.3114,765.0857,357.3114,769.0857" style="stroke:#000000;stroke-width:1;"/><line style="stroke:#000000;stroke-width:1;" x1="130.0783" x2="130.0783" y1="97.4641" y2="145.032"/><polygon fill="#000000" points="126.0783,135.032,130.0783,145.032,134.0783,135.032,130.0783,139.032" style="stroke:#000000;stroke-width:1;"/><line style="stroke:#000000;stroke-width:1;" x1="357.3114" x2="357.3114" y1="97.4641" y2="289.0391"/><polygon fill="#000000" points="353.3114,279.0391,357.3114,289.0391,361.3114,279.0391,357.3114,283.0391" style="stroke:#000000;stroke-width:1;"/><line style="stroke:#000000;stroke-width:1;" x1="240.1588" x2="240.1588" y1="75.9641" y2="95.9641"/><polygon fill="#000000" points="236.1588,85.9641,240.1588,95.9641,244.1588,85.9641,240.1588,89.9641" style="stroke:#000000;stroke-width:1;"/><line style="stroke:#000000;stroke-width:1;" x1="240.1588" x2="240.1588" y1="776.5857" y2="795.0857"/><polygon fill="#000000" points="236.1588,785.0857,240.1588,795.0857,244.1588,785.0857,240.1588,789.0857" style="stroke:#000000;stroke-width:1;"/><?plantuml-src TP91Rzim38Nl_XLSBajlExSd8psqm88MpOOT2yQY7QAoP52K2s_OVnyTosrQO3uOzjFZuoTAN-7HOz2V--_GKI119GV72VOFjp-gzC9XGC4UzfGITbHxxW8q59IaKbPFK3VA8-i4juoTMQzXiujzJzBG7Arjb7vJVT4JzGI3HmuNiOt7b6fLuMDMkczYEF1lWczLKXIjqk1PAxDQAux1adFIQDaR-5E1FTT28zFhpXmtYv3oiMTz44UoADp2zX6dtfW1lH2w2J3hAOfrSbTWO06s4wMhivry8jY6kFnPu9ktXDoi2mRRilH5heiDPz35Gy5nU_xoU2GFknCrBp7hCuVHAg9CJvH8ndF9kfrPeFlLK3RL6BRIuSJ3Ey7QVrNdOrndO9tF4zWjbWkcJoHchFukOmRivhEv6FOX3qCKhUrUwDl0H_Ji3EQ9D4lunS75rz8MXq7YM5QAnYbbKzeSt4Vi3zeCl9JzZ_WEW_Cbkb3RUxaVTYM6Vm00?></g></svg>