<?plantuml 1.2026.1?><svg xmlns="http://www.w3.org/2000/svg" xmlns:xlink="http://www.w3.org/1999/xlink" contentStyleType="text/css" data-diagram-type="SEQUENCE" height="368px" preserveAspectRatio="none" style="width:439px;height:368px;background:#FFFFFF;" version="1.1" viewBox="0 0 439 368" width="439px" zoomAndPan="magnify"><title>System Sequence Diagram: Checkout</title><defs/><g><text fill="#000000" font-family="Verdana" font-size="22" font-weight="bold" lengthAdjust="spacing" textLength="406.9574" x="15" y="38.5181">System Sequence Diagram: Checkout</text><rect fill="#FFFFFF" height="51.412" style="stroke:#000000;stroke-width:1;" width="388.7231" x="24.6172" y="216.4441"/><g class="participant-lifeline" data-entity-uid="part1" data-qualified-name="Actor" id="part1-lifeline"><g><title>Customer</title><rect fill="#000000" fill-opacity="0.00000" height="148.8241" width="8" x="65.866" y="136.032"/><line style="stroke:#000000;stroke-width:1;stroke-dasharray:5,5;" x1="69.6172" x2="69.6172" y1="136.032" y2="284.8561"/></g></g><g class="participant-lifeline" data-entity-uid="part2" data-qualified-name="System" id="part2-lifeline"><g><title>system</title><rect fill="#000000" fill-opacity="0.00000" height="148.8241" width="8" x="359.0443" y="136.032"/><line style="stroke:#000000;stroke-width:1;stroke-dasharray:5,5;" x1="362.7484" x2="362.7484" y1="136.032" y2="284.8561"/></g></g><g class="participant participant-head" data-entity-uid="part1" data-qualified-name="Actor" id="part1-head"><text fill="#000000" font-family="Verdana" font-size="14" lengthAdjust="spacing" textLength="64.4978" x="34.6172" y="131.93">Customer</text><ellipse cx="69.866" cy="64.9641" fill="#FFFFFF" rx="8" ry="8" style="stroke:#000000;stroke-width:1;"/><path d="M69.866,72.9641 L69.866,99.9641 M56.866,80.9641 L82.866,80.9641 M69.866,99.9641 L56.866,114.9641 M69.866,99.9641 L82.866,114.9641" fill="none" style="stroke:#000000;stroke-width:1;"/></g><g class="participant participant-tail" data-entity-uid="part1" data-qualified-name="Actor" id="part1-tail"><text fill="#000000" font-family="Verdana" font-size="14" lengthAdjust="spacing" textLength="64.4978" x="34.6172" y="298.822">Customer</text><ellipse cx="69.866" cy="311.924" fill="#FFFFFF" rx="8" ry="8" style="stroke:#000000;stroke-width:1;"/><path d="M69.866,319.924 L69.866,346.924 M56.866,327.924 L82.866,327.924 M69.866,346.924 L56.866,361.924 M69.866,346.924 L82.866,361.924" fill="none" style="stroke:#000000;stroke-width:1;"/></g><g class="participant participant-head" data-entity-uid="part2" data-qualified-name="System" id="part2-head"><rect fill="#FFFFFF" height="33.0679" rx="2.5" ry="2.5" style="stroke:#000000;stroke-width:1;" width="60.5918" x="332.7484" y="101.9641"/><text fill="#000000" font-family="Verdana" font-size="14" lengthAdjust="spacing" textLength="46.5918" x="339.7484" y="123.93">system</text></g><g class="participant participant-tail" data-entity-uid="part2" data-qualified-name="System" id="part2-tail"><rect fill="#FFFFFF" height="33.0679" rx="2.5" ry="2.5" style="stroke:#000000;stroke-width:1;" width="60.5918" x="332.7484" y="283.8561"/><text fill="#000000" font-family="Verdana" font-size="14" lengthAdjust="spacing" textLength="46.5918" x="339.7484" y="305.822">system</text></g><g class="message" data-entity-1="part1" data-entity-2="part2" id="msg1"><polygon fill="#000000" points="351.0443,165.738,361.0443,169.738,351.0443,173.738,355.0443,169.738" style="stroke:#000000;stroke-width:1;"/><line style="stroke:#000000;stroke-width:1;" x1="69.866" x2="357.0443" y1="169.738" y2="169.738"/><text fill="#000000" font-family="Verdana" font-size="13" lengthAdjust="spacing" textLength="65.78" x="76.866" y="163.929">reviewCart</text></g><g class="message" data-entity-1="part1" data-entity-2="part2" id="msg2"><polygon fill="#000000" points="351.0443,197.4441,361.0443,201.4441,351.0443,205.4441,355.0443,201.4441" style="stroke:#000000;stroke-width:1;"/><line style="stroke:#000000;stroke-width:1;" x1="69.866" x2="357.0443" y1="201.4441" y2="201.4441"/><text fill="#000000" font-family="Verdana" font-size="13" lengthAdjust="spacing" textLength="269.1783" x="76.866" y="195.635">submitOrder(cartToken, shippingAddressId)</text></g><path d="M24.6172,216.4441 L86.9202,216.4441 L86.9202,226.1501 L76.9202,236.1501 L24.6172,236.1501 L24.6172,216.4441" fill="#FFFFFF" style="stroke:#000000;stroke-width:1;"/><rect fill="none" height="51.412" style="stroke:#000000;stroke-width:1;" width="388.7231" x="24.6172" y="216.4441"/><text fill="#000000" font-family="Verdana" font-size="13" font-weight="bold" lengthAdjust="spacing" textLength="17.303" x="39.6172" y="231.3411">alt</text><text fill="#000000" font-family="Verdana" font-size="11" font-weight="bold" lengthAdjust="spacing" textLength="128.9961" x="101.9202" y="230.203">[Fraud review required]</text><g class="message" data-entity-1="part2" data-entity-2="part1" id="msg3"><polygon fill="#000000" points="80.866,255.8561,70.866,259.8561,80.866,263.8561,76.866,259.8561" style="stroke:#000000;stroke-width:1;"/><line style="stroke:#000000;stroke-width:1;" x1="74.866" x2="362.0443" y1="259.8561" y2="259.8561"/><text fill="#000000" font-family="Verdana" font-size="13" lengthAdjust="spacing" textLength="239.0052" x="86.866" y="254.0471">sendOrderConfirmation(orderNumber)</text></g><?plantuml-src ROxBJiD034NtynKcgrO2YNKNI54GKZUm23_Wp9Z6IkPHsmE2hsUQbXqhI_TnV8rj9HY_rIZ2IETAoHCyCvu4um66cVoIgxaxcoaIb1KvELqu5Mm1y2kgzcR2KpKw-fn6_Y5uTEWj2tH3LSkHf0DKw2-QQqLZpmMJGQVRuyszRd1kIy73qz-e0mXzCdqDhVUFgNMAR6yII7Q-HTxpGkaUTEPIE9tw48HKZs7lS3Lu4QpX1cpdN5aek1kiOQ_yHgKKDkQGqmTBHEESTlcYlDOuaUnTI_m2?></g></svg>