<?plantuml 1.2026.2?><svg xmlns="http://www.w3.org/2000/svg" xmlns:xlink="http://www.w3.org/1999/xlink" contentStyleType="text/css" data-diagram-type="ACTIVITY" height="573px" preserveAspectRatio="none" style="width:523px;height:573px;background:#FFFFFF;" version="1.1" viewBox="0 0 523 573" width="523px" zoomAndPan="magnify"><title>Activity Diagram: Clinic Scheduling System</title><defs/><g><g class="title" data-source-line="3"><text fill="#000000" font-family="sans-serif" font-size="14" font-weight="bold" lengthAdjust="spacing" textLength="297.2049" x="111.7678" y="34.9659">Activity Diagram: Clinic Scheduling System</text></g><ellipse cx="261.8702" cy="60.0679" fill="#222222" rx="10" ry="10" style="stroke:#222222;stroke-width:1;"/><line style="stroke:#181818;stroke-width:1.5;" x1="89.8184" x2="430.604" y1="90.0679" y2="90.0679"/><rect fill="none" height="338.9534" style="stroke:#000000;stroke-width:1.5;" width="157.6368" x="11" y="149.5589"/><path d="M67.5918,149.5589 L67.5918,161.6268 L57.5918,171.6268 L11,171.6268" fill="none" style="stroke:#000000;stroke-width:1.5;"/><text fill="#000000" font-family="sans-serif" font-size="14" lengthAdjust="spacing" textLength="46.5918" x="14" y="165.5248">Patient</text><rect fill="#F1F1F1" height="36.3441" rx="12.5" ry="12.5" style="stroke:#181818;stroke-width:0.5;" width="99.7646" x="39.9361" y="188.6268"/><text fill="#000000" font-family="sans-serif" font-size="12" lengthAdjust="spacing" textLength="79.7646" x="49.9361" y="211.4549">selectClinician</text><rect fill="#F1F1F1" height="36.3441" rx="12.5" ry="12.5" style="stroke:#181818;stroke-width:0.5;" width="93.7766" x="42.9301" y="259.9709"/><text fill="#000000" font-family="sans-serif" font-size="12" lengthAdjust="spacing" textLength="73.7766" x="52.9301" y="282.799">proposeSlots</text><rect fill="#F1F1F1" height="36.3441" rx="12.5" ry="12.5" style="stroke:#181818;stroke-width:0.5;" width="137.6368" x="21" y="331.315"/><text fill="#000000" font-family="sans-serif" font-size="12" lengthAdjust="spacing" textLength="117.6368" x="31" y="354.1431">requestAppointment</text><rect fill="#F1F1F1" height="36.3441" rx="12.5" ry="12.5" style="stroke:#181818;stroke-width:0.5;" width="78.2604" x="50.6882" y="402.6591"/><text fill="#000000" font-family="sans-serif" font-size="12" lengthAdjust="spacing" textLength="58.2604" x="60.6882" y="425.4872">notifyStaff</text><rect fill="none" height="400.4444" style="stroke:#000000;stroke-width:1.5;" width="159.8307" x="178.6368" y="100.0679"/><path d="M269.6265,100.0679 L269.6265,112.1358 L259.6265,122.1358 L178.6368,122.1358" fill="none" style="stroke:#000000;stroke-width:1.5;"/><text fill="#000000" font-family="sans-serif" font-size="14" lengthAdjust="spacing" textLength="80.9897" x="181.6368" y="116.0339">Receptionist</text><rect fill="#F1F1F1" height="36.3441" rx="12.5" ry="12.5" style="stroke:#181818;stroke-width:0.5;" width="102.9926" x="206.193" y="139.1358"/><text fill="#000000" font-family="sans-serif" font-size="12" lengthAdjust="spacing" textLength="82.9926" x="216.193" y="161.9639">reviewRequest</text><rect fill="#F1F1F1" height="36.3441" rx="12.5" ry="12.5" style="stroke:#181818;stroke-width:0.5;" width="95.2646" x="210.057" y="210.4799"/><text fill="#000000" font-family="sans-serif" font-size="12" lengthAdjust="spacing" textLength="75.2646" x="220.057" y="233.308">reserveRoom</text><rect fill="#F1F1F1" height="36.3441" rx="12.5" ry="12.5" style="stroke:#181818;stroke-width:0.5;" width="138.1048" x="188.6368" y="281.8241"/><text fill="#000000" font-family="sans-serif" font-size="12" lengthAdjust="spacing" textLength="118.1048" x="198.6368" y="304.6522">confirmAppointment</text><rect fill="#F1F1F1" height="36.3441" rx="12.5" ry="12.5" style="stroke:#181818;stroke-width:0.5;" width="97.5566" x="208.911" y="402.6591"/><text fill="#000000" font-family="sans-serif" font-size="12" lengthAdjust="spacing" textLength="77.5566" x="218.911" y="425.4872">rejectRequest</text><polygon fill="#F1F1F1" points="234.6829,353.1682,280.6956,353.1682,292.6956,365.1682,280.6956,377.1682,234.6829,377.1682,222.6829,365.1682,234.6829,353.1682" style="stroke:#181818;stroke-width:0.5;"/><text fill="#000000" font-family="sans-serif" font-size="11" lengthAdjust="spacing" textLength="17.0829" x="261.6893" y="388.9271">yes</text><text fill="#000000" font-family="sans-serif" font-size="11" lengthAdjust="spacing" textLength="46.0127" x="234.6829" y="369.4361">No room</text><text fill="#000000" font-family="sans-serif" font-size="11" lengthAdjust="spacing" textLength="13.4529" x="292.6956" y="361.9452">no</text><polygon fill="#F1F1F1" points="257.6893,459.0032,269.6893,471.0032,257.6893,483.0032,245.6893,471.0032,257.6893,459.0032" style="stroke:#181818;stroke-width:0.5;"/><rect fill="none" height="267.6093" style="stroke:#000000;stroke-width:1.5;" width="164.2729" x="348.4675" y="185.2309"/><path d="M413.6413,185.2309 L413.6413,197.2988 L403.6413,207.2988 L348.4675,207.2988" fill="none" style="stroke:#000000;stroke-width:1.5;"/><text fill="#000000" font-family="sans-serif" font-size="14" lengthAdjust="spacing" textLength="55.1738" x="351.4675" y="201.1969">Clinician</text><rect fill="#F1F1F1" height="36.3441" rx="12.5" ry="12.5" style="stroke:#181818;stroke-width:0.5;" width="120.5127" x="370.3476" y="224.2988"/><text fill="#000000" font-family="sans-serif" font-size="12" lengthAdjust="spacing" textLength="100.5127" x="380.3476" y="247.1269">openConsultation</text><rect fill="#F1F1F1" height="36.3441" rx="12.5" ry="12.5" style="stroke:#181818;stroke-width:0.5;" width="112.3167" x="374.4457" y="295.6429"/><text fill="#000000" font-family="sans-serif" font-size="12" lengthAdjust="spacing" textLength="92.3167" x="384.4457" y="318.471">recordDiagnosis</text><rect fill="#F1F1F1" height="36.3441" rx="12.5" ry="12.5" style="stroke:#181818;stroke-width:0.5;" width="144.2729" x="358.4675" y="366.9871"/><text fill="#000000" font-family="sans-serif" font-size="12" lengthAdjust="spacing" textLength="124.2729" x="368.4675" y="389.8152">completeConsultation</text><line style="stroke:#181818;stroke-width:1.5;" x1="89.8184" x2="430.604" y1="520.5123" y2="520.5123"/><ellipse cx="261.8702" cy="551.5123" fill="none" rx="11" ry="11" style="stroke:#222222;stroke-width:1;"/><ellipse cx="261.8702" cy="551.5123" fill="#222222" rx="6" ry="6" style="stroke:#222222;stroke-width:1;"/><line style="stroke:#181818;stroke-width:1;" x1="89.8184" x2="89.8184" y1="224.9709" y2="259.9709"/><polygon fill="#181818" points="85.8184,249.9709,89.8184,259.9709,93.8184,249.9709,89.8184,253.9709" style="stroke:#181818;stroke-width:1;"/><line style="stroke:#181818;stroke-width:1;" x1="89.8184" x2="89.8184" y1="296.315" y2="331.315"/><polygon fill="#181818" points="85.8184,321.315,89.8184,331.315,93.8184,321.315,89.8184,325.315" style="stroke:#181818;stroke-width:1;"/><line style="stroke:#181818;stroke-width:1;" x1="89.8184" x2="89.8184" y1="367.6591" y2="402.6591"/><polygon fill="#181818" points="85.8184,392.6591,89.8184,402.6591,93.8184,392.6591,89.8184,396.6591" style="stroke:#181818;stroke-width:1;"/><line style="stroke:#181818;stroke-width:1;" x1="89.8184" x2="89.8184" y1="439.0032" y2="520.5123"/><polygon fill="#181818" points="85.8184,510.5123,89.8184,520.5123,93.8184,510.5123,89.8184,514.5123" style="stroke:#181818;stroke-width:1;"/><line style="stroke:#181818;stroke-width:1;" x1="257.6893" x2="257.6893" y1="175.4799" y2="210.4799"/><polygon fill="#181818" points="253.6893,200.4799,257.6893,210.4799,261.6893,200.4799,257.6893,204.4799" style="stroke:#181818;stroke-width:1;"/><line style="stroke:#181818;stroke-width:1;" x1="257.6893" x2="257.6893" y1="246.8241" y2="281.8241"/><polygon fill="#181818" points="253.6893,271.8241,257.6893,281.8241,261.6893,271.8241,257.6893,275.8241" style="stroke:#181818;stroke-width:1;"/><line style="stroke:#181818;stroke-width:1;" x1="257.6893" x2="257.6893" y1="377.1682" y2="402.6591"/><polygon fill="#181818" points="253.6893,392.6591,257.6893,402.6591,261.6893,392.6591,257.6893,396.6591" style="stroke:#181818;stroke-width:1;"/><line style="stroke:#181818;stroke-width:1;" x1="292.6956" x2="316.4675" y1="365.1682" y2="365.1682"/><polygon fill="#181818" points="312.4675,410.8312,316.4675,420.8312,320.4675,410.8312,316.4675,414.8312" style="stroke:#181818;stroke-width:1;"/><line style="stroke:#181818;stroke-width:1;" x1="316.4675" x2="316.4675" y1="365.1682" y2="471.0032"/><line style="stroke:#181818;stroke-width:1;" x1="316.4675" x2="269.6893" y1="471.0032" y2="471.0032"/><polygon fill="#181818" points="279.6893,467.0032,269.6893,471.0032,279.6893,475.0032,275.6893,471.0032" style="stroke:#181818;stroke-width:1;"/><line style="stroke:#181818;stroke-width:1;" x1="257.6893" x2="257.6893" y1="439.0032" y2="459.0032"/><polygon fill="#181818" points="253.6893,449.0032,257.6893,459.0032,261.6893,449.0032,257.6893,453.0032" style="stroke:#181818;stroke-width:1;"/><line style="stroke:#181818;stroke-width:1;" x1="257.6893" x2="257.6893" y1="318.1682" y2="353.1682"/><polygon fill="#181818" points="253.6893,343.1682,257.6893,353.1682,261.6893,343.1682,257.6893,347.1682" style="stroke:#181818;stroke-width:1;"/><line style="stroke:#181818;stroke-width:1;" x1="257.6893" x2="257.6893" y1="483.0032" y2="520.5123"/><polygon fill="#181818" points="253.6893,510.5123,257.6893,520.5123,261.6893,510.5123,257.6893,514.5123" style="stroke:#181818;stroke-width:1;"/><line style="stroke:#181818;stroke-width:1;" x1="430.604" x2="430.604" y1="260.6429" y2="295.6429"/><polygon fill="#181818" points="426.604,285.6429,430.604,295.6429,434.604,285.6429,430.604,289.6429" style="stroke:#181818;stroke-width:1;"/><line style="stroke:#181818;stroke-width:1;" x1="430.604" x2="430.604" y1="331.9871" y2="366.9871"/><polygon fill="#181818" points="426.604,356.9871,430.604,366.9871,434.604,356.9871,430.604,360.9871" style="stroke:#181818;stroke-width:1;"/><line style="stroke:#181818;stroke-width:1;" x1="430.604" x2="430.604" y1="403.3312" y2="520.5123"/><polygon fill="#181818" points="426.604,510.5123,430.604,520.5123,434.604,510.5123,430.604,514.5123" style="stroke:#181818;stroke-width:1;"/><line style="stroke:#181818;stroke-width:1;" x1="89.8184" x2="89.8184" y1="91.5679" y2="188.6268"/><polygon fill="#181818" points="85.8184,178.6268,89.8184,188.6268,93.8184,178.6268,89.8184,182.6268" style="stroke:#181818;stroke-width:1;"/><line style="stroke:#181818;stroke-width:1;" x1="257.6893" x2="257.6893" y1="91.5679" y2="139.1358"/><polygon fill="#181818" points="253.6893,129.1358,257.6893,139.1358,261.6893,129.1358,257.6893,133.1358" style="stroke:#181818;stroke-width:1;"/><line style="stroke:#181818;stroke-width:1;" x1="430.604" x2="430.604" y1="91.5679" y2="224.2988"/><polygon fill="#181818" points="426.604,214.2988,430.604,224.2988,434.604,214.2988,430.604,218.2988" style="stroke:#181818;stroke-width:1;"/><line style="stroke:#181818;stroke-width:1;" x1="261.8702" x2="261.8702" y1="70.0679" y2="90.0679"/><polygon fill="#181818" points="257.8702,80.0679,261.8702,90.0679,265.8702,80.0679,261.8702,84.0679" style="stroke:#181818;stroke-width:1;"/><line style="stroke:#181818;stroke-width:1;" x1="261.8702" x2="261.8702" y1="522.0123" y2="540.5123"/><polygon fill="#181818" points="257.8702,530.5123,261.8702,540.5123,265.8702,530.5123,261.8702,534.5123" style="stroke:#181818;stroke-width:1;"/><?plantuml-src VL71JiCm3BttAwnTs7u1JjDsP32jS4PPwdQ6r0wnDrGX_friBMMe4Zb4rlFpotln3Mo3OtlUt4E3ZCaPLh3lOFEuVYhqZJYwv5hOeAfhS1ceOV38Xgamie2mz4OdiWxMv9fClOLL82OFfJzWTSnr0sMdXcsXvf8L6WDPaMNpF0d3REkCik8CFWl8vrOneBTUXHpVzMXC4aMn368wG0dVZwYsZ568hSqQGuF5gEvAStNT8y7jCS1kmdz1hegltXAunX5V6zkXntWkIN_T9JmHVWnIen75TCATI3iWNhYcr4wiKGtp1u6KcGkm0pBCEzJ5fNSHUitH_uXZK8GvIy_9Vgc-YhIQlFD_fF5NnpmIaREA7eEvCsUCv2LLvvsoAEaOguq13QS3FtQc_S5GlllDgqdy1W00?></g></svg>