<?plantuml 1.2026.1?><svg xmlns="http://www.w3.org/2000/svg" xmlns:xlink="http://www.w3.org/1999/xlink" contentStyleType="text/css" data-diagram-type="SEQUENCE" height="372px" preserveAspectRatio="none" style="width:717px;height:372px;background:#FFFFFF;" version="1.1" viewBox="0 0 717 372" width="717px" zoomAndPan="magnify"><title>Sequence Diagram: ScheduleConsultation</title><defs/><g><text fill="#000000" font-family="Verdana" font-size="22" font-weight="bold" lengthAdjust="spacing" textLength="457.0075" x="136.7038" y="38.5181">Sequence Diagram: ScheduleConsultation</text><g class="participant-lifeline" data-entity-uid="part1" data-qualified-name="Actor" id="part1-lifeline"><g><title>Scheduler</title><rect fill="#000000" fill-opacity="0.00000" height="152.8241" width="8" x="74.7529" y="136.032"/><line style="stroke:#000000;stroke-width:1;stroke-dasharray:5,5;" x1="78" x2="78" y1="136.032" y2="288.8561"/></g></g><g class="participant-lifeline" data-entity-uid="part2" data-qualified-name="InsuranceService" id="part2-lifeline"><g><title>InsuranceService</title><rect fill="#000000" fill-opacity="0.00000" height="152.8241" width="8" x="358.9611" y="136.032"/><line style="stroke:#000000;stroke-width:1;stroke-dasharray:5,5;" x1="362.7793" x2="362.7793" y1="136.032" y2="288.8561"/></g></g><g class="participant-lifeline" data-entity-uid="part3" data-qualified-name="SchedulingService" id="part3-lifeline"><g><title>SchedulingService</title><rect fill="#000000" fill-opacity="0.00000" height="152.8241" width="8" x="640.7123" y="136.032"/><line style="stroke:#000000;stroke-width:1;stroke-dasharray:5,5;" x1="644.0096" x2="644.0096" y1="136.032" y2="288.8561"/></g></g><g class="participant participant-head" data-entity-uid="part1" data-qualified-name="Actor" id="part1-head"><text fill="#000000" font-family="Verdana" font-size="14" lengthAdjust="spacing" textLength="65.5057" x="43" y="131.93">Scheduler</text><ellipse cx="78.7529" cy="64.9641" fill="#FFFFFF" rx="8" ry="8" style="stroke:#000000;stroke-width:1;"/><path d="M78.7529,72.9641 L78.7529,99.9641 M65.7529,80.9641 L91.7529,80.9641 M78.7529,99.9641 L65.7529,114.9641 M78.7529,99.9641 L91.7529,114.9641" fill="none" style="stroke:#000000;stroke-width:1;"/></g><g class="participant participant-tail" data-entity-uid="part1" data-qualified-name="Actor" id="part1-tail"><text fill="#000000" font-family="Verdana" font-size="14" lengthAdjust="spacing" textLength="65.5057" x="43" y="302.822">Scheduler</text><ellipse cx="78.7529" cy="315.924" fill="#FFFFFF" rx="8" ry="8" style="stroke:#000000;stroke-width:1;"/><path d="M78.7529,323.924 L78.7529,350.924 M65.7529,331.924 L91.7529,331.924 M78.7529,350.924 L65.7529,365.924 M78.7529,350.924 L91.7529,365.924" fill="none" style="stroke:#000000;stroke-width:1;"/></g><g class="participant participant-head" data-entity-uid="part2" data-qualified-name="InsuranceService" id="part2-head"><rect fill="#FFFFFF" height="33.0679" rx="2.5" ry="2.5" style="stroke:#000000;stroke-width:1;" width="126.3636" x="299.7793" y="101.9641"/><text fill="#000000" font-family="Verdana" font-size="14" lengthAdjust="spacing" textLength="112.3636" x="306.7793" y="123.93">InsuranceService</text></g><g class="participant participant-tail" data-entity-uid="part2" data-qualified-name="InsuranceService" id="part2-tail"><rect fill="#FFFFFF" height="33.0679" rx="2.5" ry="2.5" style="stroke:#000000;stroke-width:1;" width="126.3636" x="299.7793" y="287.8561"/><text fill="#000000" font-family="Verdana" font-size="14" lengthAdjust="spacing" textLength="112.3636" x="306.7793" y="309.822">InsuranceService</text></g><g class="participant participant-head" data-entity-uid="part3" data-qualified-name="SchedulingService" id="part3-head"><rect fill="#FFFFFF" height="33.0679" rx="2.5" ry="2.5" style="stroke:#000000;stroke-width:1;" width="133.4055" x="578.0096" y="101.9641"/><text fill="#000000" font-family="Verdana" font-size="14" lengthAdjust="spacing" textLength="119.4055" x="585.0096" y="123.93">SchedulingService</text></g><g class="participant participant-tail" data-entity-uid="part3" data-qualified-name="SchedulingService" id="part3-tail"><rect fill="#FFFFFF" height="33.0679" rx="2.5" ry="2.5" style="stroke:#000000;stroke-width:1;" width="133.4055" x="578.0096" y="287.8561"/><text fill="#000000" font-family="Verdana" font-size="14" lengthAdjust="spacing" textLength="119.4055" x="585.0096" y="309.822">SchedulingService</text></g><path d="M10,151.032 L10,178.032 L148,178.032 L148,161.032 L138,151.032 L10,151.032" fill="#FFFFFF" style="stroke:#000000;stroke-width:1;"/><path d="M138,151.032 L138,161.032 L148,161.032 L138,151.032" fill="#FFFFFF" style="stroke:#000000;stroke-width:1;"/><text fill="#000000" font-family="Verdana" font-size="13" lengthAdjust="spacing" textLength="117.9361" x="16" y="169.929">registerVisitReason</text><g class="message" data-entity-1="part1" data-entity-2="part2" id="msg1"><polygon fill="#000000" points="350.9611,203.4441,360.9611,207.4441,350.9611,211.4441,354.9611,207.4441" style="stroke:#000000;stroke-width:1;"/><line style="stroke:#000000;stroke-width:1;" x1="78.7529" x2="356.9611" y1="207.4441" y2="207.4441"/><text fill="#000000" font-family="Verdana" font-size="13" lengthAdjust="spacing" textLength="260.2083" x="85.7529" y="201.635">validateCoverage(policyNumber, visitType)</text></g><g class="message" data-entity-1="part2" data-entity-2="part3" id="msg2"><polygon fill="#000000" points="632.7123,235.1501,642.7123,239.1501,632.7123,243.1501,636.7123,239.1501" style="stroke:#000000;stroke-width:1;"/><line style="stroke:#000000;stroke-width:1;" x1="362.9611" x2="638.7123" y1="239.1501" y2="239.1501"/><text fill="#000000" font-family="Verdana" font-size="13" lengthAdjust="spacing" textLength="257.7512" x="369.9611" y="233.3411">reservePhysician(specialty, preferredDate)</text></g><g class="message" data-entity-1="part3" data-entity-2="part1" id="msg3"><polygon fill="#000000" points="89.7529,266.8561,79.7529,270.8561,89.7529,274.8561,85.7529,270.8561" style="stroke:#000000;stroke-width:1;"/><line style="stroke:#000000;stroke-width:1;" x1="83.7529" x2="643.7123" y1="270.8561" y2="270.8561"/><text fill="#000000" font-family="Verdana" font-size="13" lengthAdjust="spacing" textLength="246.5973" x="95.7529" y="265.0471">confirmAppointment(appointmentCode)</text></g><?plantuml-src PL2xRiCm3Dpr5Qod64Y1pXaA1CcIfIZgeZiZCpPHML8fse3xzMMI1dru4d6w1u_A6WWQ-XWfUe8zOoSuRA3nFRLZe5sAPGoAoYcwE-rf8CW1ERhopZ6ZaS47B6MhAdmSbGu-nOO_2HuSUaq2rSrBAi02spFeJAdiEMDKg0wM8MZv3Sd4dYwy_-1VoRSdn-wtPe4w5vCIf8da6WmR4EguACaR5zONmcBDhd_tZujKuqyOk4MrKvWBThJAAR2VdyRXIBA6wMppEcUgtK9iXekLBXiKc-cvduiLmhWgcUmDEgyX2vr8XDgzHTPkAJVFMnExz8bbsEQSEEf0KLVuC-zII_KN?></g></svg>