<?plantuml 1.2026.2?><svg xmlns="http://www.w3.org/2000/svg" xmlns:xlink="http://www.w3.org/1999/xlink" contentStyleType="text/css" data-diagram-type="STATE" height="456px" preserveAspectRatio="none" style="width:386px;height:456px;background:#FFFFFF;" version="1.1" viewBox="0 0 386 456" width="386px" zoomAndPan="magnify"><title>State Machine: SensorAlert</title><defs/><g><g class="title" data-source-line="1"><text fill="#000000" font-family="Verdana" font-size="22" font-weight="bold" lengthAdjust="spacing" textLength="297.221" x="40.3361" y="38.5181">State Machine: SensorAlert</text></g><g class="entity" data-qualified-name="Acknowledged" id="ent0002"><rect fill="#FFFFFF" height="50" rx="12.5" ry="12.5" style="stroke:#000000;stroke-width:1;" width="116.5016" x="60.98" y="271.9641"/><line style="stroke:#000000;stroke-width:1;" x1="60.98" x2="177.4816" y1="301.032" y2="301.032"/><text fill="#000000" font-family="Verdana" font-size="14" lengthAdjust="spacing" textLength="96.5016" x="70.98" y="291.93">Acknowledged</text></g><g class="entity" data-qualified-name="New" id="ent0003"><rect fill="#FFFFFF" height="50" rx="12.5" ry="12.5" style="stroke:#000000;stroke-width:1;" width="50" x="94.23" y="142.9641"/><line style="stroke:#000000;stroke-width:1;" x1="94.23" x2="144.23" y1="172.032" y2="172.032"/><text fill="#000000" font-family="Verdana" font-size="14" lengthAdjust="spacing" textLength="29.5399" x="104.4601" y="162.93">New</text></g><g class="entity" data-qualified-name="Resolved" id="ent0004"><rect fill="#FFFFFF" height="50" rx="12.5" ry="12.5" style="stroke:#000000;stroke-width:1;" width="79.0098" x="79.72" y="400.9641"/><line style="stroke:#000000;stroke-width:1;" x1="79.72" x2="158.7298" y1="430.032" y2="430.032"/><text fill="#000000" font-family="Verdana" font-size="14" lengthAdjust="spacing" textLength="59.0098" x="89.72" y="420.93">Resolved</text></g><g class="start_entity" data-qualified-name=".start." data-source-line="8" id="ent0002"><ellipse cx="119.23" cy="71.9641" fill="#FFFFFF" rx="10" ry="10" style="stroke:#000000;stroke-width:1;"/></g><!--link *start* to New--><g class="link" data-entity-1="ent0002" data-entity-2="ent0003" data-link-type="dependency" data-source-line="8" id="lnk3"><path d="M119.23,82.3241 C119.23,96.2541 119.23,116.9141 119.23,136.6141" fill="none" id="*start*-to-New" style="stroke:#000000;stroke-width:1;"/><polygon fill="#000000" points="119.23,142.6141,123.23,133.6141,119.23,137.6141,115.23,133.6141,119.23,142.6141" style="stroke:#000000;stroke-width:1;"/></g><!--link New to Acknowledged--><g class="link" data-entity-1="ent0003" data-entity-2="ent0002" data-link-type="dependency" data-source-line="9" id="lnk4"><path d="M93.88,175.5341 C71.13,182.9241 39.11,197.3841 24.23,222.9641 C11,245.7041 28.6052,261.2518 55.3052,273.7418" fill="none" id="New-to-Acknowledged" style="stroke:#000000;stroke-width:1;"/><polygon fill="#000000" points="60.74,276.2841,54.2827,268.8474,56.211,274.1655,50.893,276.0938,60.74,276.2841" style="stroke:#000000;stroke-width:1;"/><text fill="#000000" font-family="Verdana" font-size="13" lengthAdjust="spacing" textLength="142.0121" x="25.23" y="237.8611">OpenMaintenanceCase</text></g><!--link New to Acknowledged--><g class="link" data-entity-1="ent0003" data-entity-2="ent0002" data-link-type="dependency" data-source-line="10" id="lnk5"><path d="M144.55,187.3341 C155.24,196.6641 166.51,208.9841 172.23,222.9641 C179.52,240.7941 171.958,254.2519 157.568,267.6719" fill="none" id="New-to-Acknowledged-1" style="stroke:#000000;stroke-width:1;"/><polygon fill="#000000" points="153.18,271.7641,162.49,268.5511,156.8366,268.354,157.0338,262.7005,153.18,271.7641" style="stroke:#000000;stroke-width:1;"/><text fill="#000000" font-family="Verdana" font-size="13" lengthAdjust="spacing" textLength="203.4632" x="175.43" y="237.8611">Acknowledge (AcknowledgeAlert)</text></g><!--link Acknowledged to Resolved--><g class="link" data-entity-1="ent0002" data-entity-2="ent0004" data-link-type="dependency" data-source-line="11" id="lnk6"><path d="M119.23,322.4541 C119.23,344.9441 119.23,372.0841 119.23,394.5541" fill="none" id="Acknowledged-to-Resolved" style="stroke:#000000;stroke-width:1;"/><polygon fill="#000000" points="119.23,400.5541,123.23,391.5541,119.23,395.5541,115.23,391.5541,119.23,400.5541" style="stroke:#000000;stroke-width:1;"/><text fill="#000000" font-family="Verdana" font-size="13" lengthAdjust="spacing" textLength="133.8351" x="120.23" y="366.8611">Resolve (ResolveAlert)</text></g><?plantuml-src TK-x2i904EplAzOk2e9r2Y5OMKJ1b69nNWPpvB8NSgi1lzupdX0BYuMPdPbzY1K7gaGBgDIciOoSAd3mG-4mY5f8WmxKEsrPXTPohmVTaN4wX49aiDUxO6yyL_O9sgWmZIfCotvqg6-eK-k0CQ4JWdUFAAZpwaBhzNRIOaru7gMSZZsuZBi5hDbWfmF-MMUKiXcP7bcg7_Sx_hqZHXEaB85Fv0K0?></g></svg>