<?plantuml 1.2026.1?><svg xmlns="http://www.w3.org/2000/svg" xmlns:xlink="http://www.w3.org/1999/xlink" contentStyleType="text/css" data-diagram-type="CLASS" height="1050px" preserveAspectRatio="none" style="width:619px;height:1050px;background:#FFFFFF;" version="1.1" viewBox="0 0 619 1050" width="619px" zoomAndPan="magnify"><title>Design Model: "Hospital Operations"</title><defs/><g><g class="title" data-source-line="2"><text fill="#000000" font-family="Verdana" font-size="22" font-weight="bold" lengthAdjust="spacing" textLength="401.6334" x="104.3791" y="38.5181">Design Model: "Hospital Operations"</text></g><!--class Person--><g class="entity" data-qualified-name="Person" data-source-line="5" id="ent0002"><rect fill="#FFFFFF" height="121.3396" rx="2.5" ry="2.5" style="stroke:#000000;stroke-width:1;" width="128.5636" x="284.12" y="62.9641"/><ellipse cx="321.6845" cy="77.4981" fill="#FFFFFF" rx="9" ry="9" style="stroke:#000000;stroke-width:1;"/><path d="M321.1532,84.4199 Q319.4032,84.4199 318.2626,83.6856 Q317.1376,82.9356 316.5751,81.5918 Q316.0282,80.2324 316.0282,78.4356 Q316.0282,76.4043 316.6845,74.9512 Q317.3407,73.4981 318.622,72.7168 Q319.9032,71.9356 321.7782,71.9356 Q322.6689,71.9356 323.3407,72.1231 Q324.0126,72.2949 324.7001,72.6387 L323.8876,74.6543 Q323.2626,74.3418 322.7157,74.2168 Q322.1845,74.0918 321.7001,74.0918 Q320.5282,74.0918 319.8251,74.6231 Q319.122,75.1543 318.8251,76.1074 Q318.5282,77.0606 318.5282,78.3262 Q318.5282,80.3418 319.247,81.3106 Q319.9657,82.2637 321.5595,82.2637 Q322.1532,82.2637 322.7782,82.1074 Q323.4032,81.9512 324.2314,81.5762 L324.2314,83.7949 Q323.497,84.1074 322.7001,84.2637 Q321.9189,84.4199 321.1532,84.4199 Z " fill="#000000"/><text fill="#000000" font-family="Verdana" font-size="14" lengthAdjust="spacing" textLength="45.9758" x="339.1433" y="82.93">Person</text><line style="stroke:#000000;stroke-width:1;" x1="285.12" x2="411.6836" y1="92.032" y2="92.032"/><text fill="#000000" font-family="Verdana" font-size="14" lengthAdjust="spacing" textLength="116.5636" x="290.12" y="110.998">nationalId : string</text><text fill="#000000" font-family="Verdana" font-size="14" lengthAdjust="spacing" textLength="109.6196" x="290.12" y="130.0659">fullName : string</text><text fill="#000000" font-family="Verdana" font-size="14" lengthAdjust="spacing" textLength="103.1796" x="290.12" y="149.1338">birthDate : date</text><text fill="#000000" font-family="Verdana" font-size="14" lengthAdjust="spacing" textLength="91.7276" x="290.12" y="168.2017">phone : string</text><line style="stroke:#000000;stroke-width:1;" x1="285.12" x2="411.6836" y1="176.3037" y2="176.3037"/></g><!--class Patient--><g class="entity" data-qualified-name="Patient" data-source-line="11" id="ent0003"><rect fill="#FFFFFF" height="102.2717" rx="2.5" ry="2.5" style="stroke:#000000;stroke-width:1;" width="213.6972" x="131.55" y="245.3041"/><ellipse cx="211.3527" cy="259.8381" fill="#FFFFFF" rx="9" ry="9" style="stroke:#000000;stroke-width:1;"/><path d="M210.8214,266.7599 Q209.0714,266.7599 207.9308,266.0256 Q206.8058,265.2756 206.2433,263.9318 Q205.6964,262.5724 205.6964,260.7756 Q205.6964,258.7443 206.3527,257.2912 Q207.0089,255.8381 208.2902,255.0568 Q209.5714,254.2756 211.4464,254.2756 Q212.3371,254.2756 213.0089,254.4631 Q213.6808,254.6349 214.3683,254.9787 L213.5558,256.9943 Q212.9308,256.6818 212.3839,256.5568 Q211.8527,256.4318 211.3683,256.4318 Q210.1964,256.4318 209.4933,256.9631 Q208.7902,257.4943 208.4933,258.4474 Q208.1964,259.4006 208.1964,260.6662 Q208.1964,262.6818 208.9152,263.6506 Q209.6339,264.6037 211.2277,264.6037 Q211.8214,264.6037 212.4464,264.4474 Q213.0714,264.2912 213.8996,263.9162 L213.8996,266.1349 Q213.1652,266.4474 212.3683,266.6037 Q211.5871,266.7599 210.8214,266.7599 Z " fill="#000000"/><text fill="#000000" font-family="Verdana" font-size="14" lengthAdjust="spacing" textLength="46.5918" x="228.8527" y="265.27">Patient</text><line style="stroke:#000000;stroke-width:1;" x1="132.55" x2="344.2472" y1="274.372" y2="274.372"/><text fill="#000000" font-family="Verdana" font-size="14" lengthAdjust="spacing" textLength="201.6972" x="137.55" y="293.338">medicalRecordNumber : string</text><text fill="#000000" font-family="Verdana" font-size="14" lengthAdjust="spacing" textLength="106.8756" x="137.55" y="312.4059">riskLevel : string</text><text fill="#000000" font-family="Verdana" font-size="14" lengthAdjust="spacing" textLength="137.4095" x="137.55" y="331.4738">consentSigned : bool</text><line style="stroke:#000000;stroke-width:1;" x1="132.55" x2="344.2472" y1="339.5758" y2="339.5758"/></g><!--class StaffMember--><g class="entity" data-qualified-name="StaffMember" data-source-line="17" id="ent0005"><rect fill="#FFFFFF" height="83.2038" rx="2.5" ry="2.5" style="stroke:#000000;stroke-width:1;" width="159.8814" x="380.46" y="254.8341"/><ellipse cx="414.0177" cy="269.3681" fill="#FFFFFF" rx="9" ry="9" style="stroke:#000000;stroke-width:1;"/><path d="M413.4864,276.2899 Q411.7364,276.2899 410.5958,275.5556 Q409.4708,274.8056 408.9083,273.4618 Q408.3614,272.1024 408.3614,270.3056 Q408.3614,268.2743 409.0177,266.8212 Q409.6739,265.3681 410.9552,264.5868 Q412.2364,263.8056 414.1114,263.8056 Q415.0021,263.8056 415.6739,263.9931 Q416.3458,264.1649 417.0333,264.5087 L416.2208,266.5243 Q415.5958,266.2118 415.0489,266.0868 Q414.5177,265.9618 414.0333,265.9618 Q412.8614,265.9618 412.1583,266.4931 Q411.4552,267.0243 411.1583,267.9774 Q410.8614,268.9306 410.8614,270.1962 Q410.8614,272.2118 411.5802,273.1806 Q412.2989,274.1337 413.8927,274.1337 Q414.4864,274.1337 415.1114,273.9774 Q415.7364,273.8212 416.5646,273.4462 L416.5646,275.6649 Q415.8302,275.9774 415.0333,276.1337 Q414.2521,276.2899 413.4864,276.2899 Z " fill="#000000"/><text fill="#000000" font-family="Verdana" font-size="14" lengthAdjust="spacing" textLength="86.1977" x="430.5861" y="274.8">StaffMember</text><line style="stroke:#000000;stroke-width:1;" x1="381.46" x2="539.3414" y1="283.902" y2="283.902"/><text fill="#000000" font-family="Verdana" font-size="14" lengthAdjust="spacing" textLength="147.8814" x="386.46" y="302.868">employeeCode : string</text><text fill="#000000" font-family="Verdana" font-size="14" lengthAdjust="spacing" textLength="97.4116" x="386.46" y="321.9359">hireDate : date</text><line style="stroke:#000000;stroke-width:1;" x1="381.46" x2="539.3414" y1="330.0379" y2="330.0379"/></g><!--class Physician--><g class="entity" data-qualified-name="Physician" data-source-line="22" id="ent0007"><rect fill="#FFFFFF" height="80.4799" rx="2.5" ry="2.5" style="stroke:#000000;stroke-width:1;" width="118.6516" x="311.07" y="437.4741"/><ellipse cx="337.2252" cy="460.1801" fill="#FFFFFF" rx="9" ry="9" style="stroke:#000000;stroke-width:1;"/><path d="M336.694,467.102 Q334.944,467.102 333.8034,466.3676 Q332.6784,465.6176 332.1159,464.2739 Q331.569,462.9145 331.569,461.1176 Q331.569,459.0864 332.2252,457.6332 Q332.8815,456.1801 334.1627,455.3989 Q335.444,454.6176 337.319,454.6176 Q338.2096,454.6176 338.8815,454.8051 Q339.5534,454.977 340.2409,455.3207 L339.4284,457.3364 Q338.8034,457.0239 338.2565,456.8989 Q337.7252,456.7739 337.2409,456.7739 Q336.069,456.7739 335.3659,457.3051 Q334.6627,457.8364 334.3659,458.7895 Q334.069,459.7426 334.069,461.0082 Q334.069,463.0239 334.7877,463.9926 Q335.5065,464.9457 337.1002,464.9457 Q337.694,464.9457 338.319,464.7895 Q338.944,464.6332 339.7721,464.2582 L339.7721,466.477 Q339.0377,466.7895 338.2409,466.9457 Q337.4596,467.102 336.694,467.102 Z " fill="#000000"/><text fill="#000000" font-family="Verdana" font-size="12" font-style="italic" lengthAdjust="spacing" textLength="39.2163" x="363.2494" y="455.3022">&#171;actor&#187;</text><text fill="#000000" font-family="Verdana" font-size="14" lengthAdjust="spacing" textLength="61.4178" x="352.1486" y="473.7842">Physician</text><line style="stroke:#000000;stroke-width:1;" x1="312.07" x2="428.7216" y1="482.8861" y2="482.8861"/><text fill="#000000" font-family="Verdana" font-size="14" lengthAdjust="spacing" textLength="106.6516" x="317.07" y="501.8521">specialty : string</text><line style="stroke:#000000;stroke-width:1;" x1="312.07" x2="428.7216" y1="509.954" y2="509.954"/></g><!--class Nurse--><g class="entity" data-qualified-name="Nurse" data-source-line="26" id="ent0009"><rect fill="#FFFFFF" height="80.4799" rx="2.5" ry="2.5" style="stroke:#000000;stroke-width:1;" width="129.7675" x="464.52" y="437.4741"/><ellipse cx="505.8159" cy="460.1801" fill="#FFFFFF" rx="9" ry="9" style="stroke:#000000;stroke-width:1;"/><path d="M505.2846,467.102 Q503.5346,467.102 502.394,466.3676 Q501.269,465.6176 500.7065,464.2739 Q500.1596,462.9145 500.1596,461.1176 Q500.1596,459.0864 500.8159,457.6332 Q501.4721,456.1801 502.7534,455.3989 Q504.0346,454.6176 505.9096,454.6176 Q506.8002,454.6176 507.4721,454.8051 Q508.144,454.977 508.8315,455.3207 L508.019,457.3364 Q507.394,457.0239 506.8471,456.8989 Q506.3159,456.7739 505.8315,456.7739 Q504.6596,456.7739 503.9565,457.3051 Q503.2534,457.8364 502.9565,458.7895 Q502.6596,459.7426 502.6596,461.0082 Q502.6596,463.0239 503.3784,463.9926 Q504.0971,464.9457 505.6909,464.9457 Q506.2846,464.9457 506.9096,464.7895 Q507.5346,464.6332 508.3627,464.2582 L508.3627,466.477 Q507.6284,466.7895 506.8315,466.9457 Q506.0502,467.102 505.2846,467.102 Z " fill="#000000"/><text fill="#000000" font-family="Verdana" font-size="12" font-style="italic" lengthAdjust="spacing" textLength="39.2163" x="523.5456" y="455.3022">&#171;actor&#187;</text><text fill="#000000" font-family="Verdana" font-size="14" lengthAdjust="spacing" textLength="39.6758" x="523.3159" y="473.7842">Nurse</text><line style="stroke:#000000;stroke-width:1;" x1="465.52" x2="593.2875" y1="482.8861" y2="482.8861"/><text fill="#000000" font-family="Verdana" font-size="14" lengthAdjust="spacing" textLength="117.7675" x="470.52" y="501.8521">shiftName : string</text><line style="stroke:#000000;stroke-width:1;" x1="465.52" x2="593.2875" y1="509.954" y2="509.954"/></g><!--class Appointment--><g class="entity" data-qualified-name="Appointment" data-source-line="30" id="ent0011"><rect fill="#FFFFFF" height="216.6792" rx="2.5" ry="2.5" style="stroke:#000000;stroke-width:1;" width="180.8254" x="279.99" y="607.8441"/><ellipse cx="323.3298" cy="622.3781" fill="#FFFFFF" rx="9" ry="9" style="stroke:#000000;stroke-width:1;"/><path d="M322.7986,629.2999 Q321.0486,629.2999 319.908,628.5656 Q318.783,627.8156 318.2205,626.4718 Q317.6736,625.1124 317.6736,623.3156 Q317.6736,621.2843 318.3298,619.8312 Q318.9861,618.3781 320.2673,617.5968 Q321.5486,616.8156 323.4236,616.8156 Q324.3142,616.8156 324.9861,617.0031 Q325.658,617.1749 326.3455,617.5187 L325.533,619.5343 Q324.908,619.2218 324.3611,619.0968 Q323.8298,618.9718 323.3455,618.9718 Q322.1736,618.9718 321.4705,619.5031 Q320.7673,620.0343 320.4705,620.9874 Q320.1736,621.9406 320.1736,623.2062 Q320.1736,625.2218 320.8923,626.1906 Q321.6111,627.1437 323.2048,627.1437 Q323.7986,627.1437 324.4236,626.9874 Q325.0486,626.8312 325.8767,626.4562 L325.8767,628.6749 Q325.1423,628.9874 324.3455,629.1437 Q323.5642,629.2999 322.7986,629.2999 Z " fill="#000000"/><text fill="#000000" font-family="Verdana" font-size="14" lengthAdjust="spacing" textLength="86.6457" x="340.8298" y="627.81">Appointment</text><line style="stroke:#000000;stroke-width:1;" x1="280.99" x2="459.8154" y1="636.912" y2="636.912"/><text fill="#000000" font-family="Verdana" font-size="14" lengthAdjust="spacing" textLength="168.8254" x="285.99" y="655.878">appointmentCode : string</text><text fill="#000000" font-family="Verdana" font-size="14" lengthAdjust="spacing" textLength="106.9736" x="285.99" y="674.9459">visitType : string</text><text fill="#000000" font-family="Verdana" font-size="14" lengthAdjust="spacing" textLength="168.5454" x="285.99" y="694.0138">appointmentState : string</text><text fill="#000000" font-family="Verdana" font-size="14" lengthAdjust="spacing" textLength="163.3514" x="285.99" y="713.0817">scheduledAt : timestamp</text><text fill="#000000" font-family="Verdana" font-size="14" lengthAdjust="spacing" textLength="119.0836" x="285.99" y="732.1496">roomCode : string</text><line style="stroke:#000000;stroke-width:1;" x1="280.99" x2="459.8154" y1="740.2516" y2="740.2516"/><text fill="#000000" font-family="Verdana" font-size="14" lengthAdjust="spacing" textLength="61.6698" x="285.99" y="759.2175">Confirm()</text><text fill="#000000" font-family="Verdana" font-size="14" lengthAdjust="spacing" textLength="61.3897" x="285.99" y="778.2855">CheckIn()</text><text fill="#000000" font-family="Verdana" font-size="14" lengthAdjust="spacing" textLength="71.8757" x="285.99" y="797.3534">Complete()</text><text fill="#000000" font-family="Verdana" font-size="14" lengthAdjust="spacing" textLength="51.9818" x="285.99" y="816.4213">Cancel()</text></g><!--class EncounterNote--><g class="entity" data-qualified-name="EncounterNote" data-source-line="41" id="ent0012"><rect fill="#FFFFFF" height="83.2038" rx="2.5" ry="2.5" style="stroke:#000000;stroke-width:1;" width="158.1035" x="90.35" y="932.1241"/><ellipse cx="117.0218" cy="946.6581" fill="#FFFFFF" rx="9" ry="9" style="stroke:#000000;stroke-width:1;"/><path d="M116.4906,953.5799 Q114.7406,953.5799 113.6,952.8456 Q112.475,952.0956 111.9125,950.7518 Q111.3656,949.3924 111.3656,947.5956 Q111.3656,945.5643 112.0218,944.1112 Q112.6781,942.6581 113.9593,941.8768 Q115.2406,941.0956 117.1156,941.0956 Q118.0062,941.0956 118.6781,941.2831 Q119.35,941.4549 120.0375,941.7987 L119.225,943.8143 Q118.6,943.5018 118.0531,943.3768 Q117.5218,943.2518 117.0375,943.2518 Q115.8656,943.2518 115.1625,943.7831 Q114.4593,944.3143 114.1625,945.2674 Q113.8656,946.2206 113.8656,947.4862 Q113.8656,949.5018 114.5843,950.4706 Q115.3031,951.4237 116.8968,951.4237 Q117.4906,951.4237 118.1156,951.2674 Q118.7406,951.1112 119.5687,950.7362 L119.5687,952.9549 Q118.8343,953.2674 118.0375,953.4237 Q117.2562,953.5799 116.4906,953.5799 Z " fill="#000000"/><text fill="#000000" font-family="Verdana" font-size="14" lengthAdjust="spacing" textLength="99.7216" x="132.06" y="952.09">EncounterNote</text><line style="stroke:#000000;stroke-width:1;" x1="91.35" x2="247.4535" y1="961.192" y2="961.192"/><text fill="#000000" font-family="Verdana" font-size="14" lengthAdjust="spacing" textLength="146.1035" x="96.35" y="980.158">diagnosisCode : string</text><text fill="#000000" font-family="Verdana" font-size="14" lengthAdjust="spacing" textLength="140.0835" x="96.35" y="999.2259">signedAt : timestamp</text><line style="stroke:#000000;stroke-width:1;" x1="91.35" x2="247.4535" y1="1007.3279" y2="1007.3279"/></g><!--class Prescription--><g class="entity" data-qualified-name="Prescription" data-source-line="45" id="ent0013"><rect fill="#FFFFFF" height="102.2717" rx="2.5" ry="2.5" style="stroke:#000000;stroke-width:1;" width="174.4974" x="283.15" y="922.5941"/><ellipse cx="326.9658" cy="937.1281" fill="#FFFFFF" rx="9" ry="9" style="stroke:#000000;stroke-width:1;"/><path d="M326.4346,944.0499 Q324.6846,944.0499 323.544,943.3156 Q322.419,942.5656 321.8565,941.2218 Q321.3096,939.8624 321.3096,938.0656 Q321.3096,936.0343 321.9658,934.5812 Q322.6221,933.1281 323.9033,932.3468 Q325.1846,931.5656 327.0596,931.5656 Q327.9502,931.5656 328.6221,931.7531 Q329.294,931.9249 329.9815,932.2687 L329.169,934.2843 Q328.544,933.9718 327.9971,933.8468 Q327.4658,933.7218 326.9815,933.7218 Q325.8096,933.7218 325.1065,934.2531 Q324.4033,934.7843 324.1065,935.7374 Q323.8096,936.6906 323.8096,937.9562 Q323.8096,939.9718 324.5283,940.9406 Q325.2471,941.8937 326.8408,941.8937 Q327.4346,941.8937 328.0596,941.7374 Q328.6846,941.5812 329.5127,941.2062 L329.5127,943.4249 Q328.7783,943.7374 327.9815,943.8937 Q327.2002,944.0499 326.4346,944.0499 Z " fill="#000000"/><text fill="#000000" font-family="Verdana" font-size="14" lengthAdjust="spacing" textLength="79.3657" x="344.4658" y="942.56">Prescription</text><line style="stroke:#000000;stroke-width:1;" x1="284.15" x2="456.6474" y1="951.662" y2="951.662"/><text fill="#000000" font-family="Verdana" font-size="14" lengthAdjust="spacing" textLength="162.4974" x="289.15" y="970.628">medicationName : string</text><text fill="#000000" font-family="Verdana" font-size="14" lengthAdjust="spacing" textLength="97.5936" x="289.15" y="989.6959">dosage : string</text><text fill="#000000" font-family="Verdana" font-size="14" lengthAdjust="spacing" textLength="78.4417" x="289.15" y="1008.7638">active : bool</text><line style="stroke:#000000;stroke-width:1;" x1="284.15" x2="456.6474" y1="1016.8658" y2="1016.8658"/></g><!--class LabOrder--><g class="entity" data-qualified-name="LabOrder" data-source-line="50" id="ent0014"><rect fill="#FFFFFF" height="140.4075" rx="2.5" ry="2.5" style="stroke:#000000;stroke-width:1;" width="119.9816" x="492.41" y="903.5241"/><ellipse cx="518.54" cy="918.0581" fill="#FFFFFF" rx="9" ry="9" style="stroke:#000000;stroke-width:1;"/><path d="M518.0088,924.9799 Q516.2588,924.9799 515.1181,924.2456 Q513.9931,923.4956 513.4306,922.1518 Q512.8838,920.7924 512.8838,918.9956 Q512.8838,916.9643 513.54,915.5112 Q514.1963,914.0581 515.4775,913.2768 Q516.7588,912.4956 518.6338,912.4956 Q519.5244,912.4956 520.1963,912.6831 Q520.8681,912.8549 521.5556,913.1987 L520.7431,915.2143 Q520.1181,914.9018 519.5713,914.7768 Q519.04,914.6518 518.5556,914.6518 Q517.3838,914.6518 516.6806,915.1831 Q515.9775,915.7143 515.6806,916.6674 Q515.3838,917.6206 515.3838,918.8862 Q515.3838,920.9018 516.1025,921.8706 Q516.8213,922.8237 518.415,922.8237 Q519.0088,922.8237 519.6338,922.6674 Q520.2588,922.5112 521.0869,922.1362 L521.0869,924.3549 Q520.3525,924.6674 519.5556,924.8237 Q518.7744,924.9799 518.0088,924.9799 Z " fill="#000000"/><text fill="#000000" font-family="Verdana" font-size="14" lengthAdjust="spacing" textLength="62.8038" x="533.4578" y="923.49">LabOrder</text><line style="stroke:#000000;stroke-width:1;" x1="493.41" x2="611.3916" y1="932.592" y2="932.592"/><text fill="#000000" font-family="Verdana" font-size="14" lengthAdjust="spacing" textLength="107.9816" x="498.41" y="951.558">testCode : string</text><text fill="#000000" font-family="Verdana" font-size="14" lengthAdjust="spacing" textLength="103.0676" x="498.41" y="970.6259">labState : string</text><text fill="#000000" font-family="Verdana" font-size="14" lengthAdjust="spacing" textLength="97.5096" x="498.41" y="989.6938">priority : string</text><line style="stroke:#000000;stroke-width:1;" x1="493.41" x2="611.3916" y1="997.7958" y2="997.7958"/><text fill="#000000" font-family="Verdana" font-size="14" lengthAdjust="spacing" textLength="101.3596" x="498.41" y="1016.7617">CollectSample()</text><text fill="#000000" font-family="Verdana" font-size="14" lengthAdjust="spacing" textLength="86.6736" x="498.41" y="1035.8296">VerifyResult()</text></g><!--class InsurancePolicy--><g class="entity" data-qualified-name="InsurancePolicy" data-source-line="57" id="ent0015"><rect fill="#FFFFFF" height="102.2717" rx="2.5" ry="2.5" style="stroke:#000000;stroke-width:1;" width="156.8015" x="12" y="426.5741"/><ellipse cx="36.303" cy="441.1081" fill="#FFFFFF" rx="9" ry="9" style="stroke:#000000;stroke-width:1;"/><path d="M35.7718,448.0299 Q34.0218,448.0299 32.8812,447.2956 Q31.7562,446.5456 31.1937,445.2018 Q30.6468,443.8424 30.6468,442.0456 Q30.6468,440.0143 31.303,438.5612 Q31.9593,437.1081 33.2405,436.3268 Q34.5218,435.5456 36.3968,435.5456 Q37.2874,435.5456 37.9593,435.7331 Q38.6312,435.9049 39.3187,436.2487 L38.5062,438.2643 Q37.8812,437.9518 37.3343,437.8268 Q36.803,437.7018 36.3187,437.7018 Q35.1468,437.7018 34.4437,438.2331 Q33.7405,438.7643 33.4437,439.7174 Q33.1468,440.6706 33.1468,441.9362 Q33.1468,443.9518 33.8655,444.9206 Q34.5843,445.8737 36.178,445.8737 Q36.7718,445.8737 37.3968,445.7174 Q38.0218,445.5612 38.8499,445.1862 L38.8499,447.4049 Q38.1155,447.7174 37.3187,447.8737 Q36.5374,448.0299 35.7718,448.0299 Z " fill="#000000"/><text fill="#000000" font-family="Verdana" font-size="14" lengthAdjust="spacing" textLength="103.6836" x="50.8148" y="446.54">InsurancePolicy</text><line style="stroke:#000000;stroke-width:1;" x1="13" x2="167.8015" y1="455.642" y2="455.642"/><text fill="#000000" font-family="Verdana" font-size="14" lengthAdjust="spacing" textLength="144.8015" x="18" y="474.608">providerName : string</text><text fill="#000000" font-family="Verdana" font-size="14" lengthAdjust="spacing" textLength="142.2814" x="18" y="493.6759">policyNumber : string</text><text fill="#000000" font-family="Verdana" font-size="14" lengthAdjust="spacing" textLength="141.2175" x="18" y="512.7438">coverageType : string</text><line style="stroke:#000000;stroke-width:1;" x1="13" x2="167.8015" y1="520.8458" y2="520.8458"/></g><!--reverse link Person to Patient--><g class="link" data-entity-1="ent0002" data-entity-2="ent0003" data-link-type="extension" data-source-line="16" id="lnk4"><path codeLine="16" d="M300.1863,199.5089 C287.4263,219.3289 283.09,226.0441 270.83,245.0841" fill="none" id="Person-backto-Patient" style="stroke:#000000;stroke-width:1;"/><polygon fill="none" points="309.93,184.3741,295.1414,196.261,305.2313,202.7567,309.93,184.3741" style="stroke:#000000;stroke-width:1;"/></g><!--reverse link Person to StaffMember--><g class="link" data-entity-1="ent0002" data-entity-2="ent0005" data-link-type="extension" data-source-line="21" id="lnk6"><path codeLine="21" d="M397.445,199.4235 C412.655,222.6035 419.8,233.5241 433.57,254.5141" fill="none" id="Person-backto-StaffMember" style="stroke:#000000;stroke-width:1;"/><polygon fill="none" points="387.57,184.3741,392.4285,202.7152,402.4614,196.1319,387.57,184.3741" style="stroke:#000000;stroke-width:1;"/></g><!--reverse link StaffMember to Physician--><g class="link" data-entity-1="ent0005" data-entity-2="ent0007" data-link-type="extension" data-source-line="25" id="lnk8"><path codeLine="25" d="M431.8998,354.2086 C417.0098,383.8486 405.03,407.7241 390.28,437.1141" fill="none" id="StaffMember-backto-Physician" style="stroke:#000000;stroke-width:1;"/><polygon fill="none" points="439.98,338.1241,426.5383,351.5152,437.2613,356.902,439.98,338.1241" style="stroke:#000000;stroke-width:1;"/></g><!--reverse link StaffMember to Nurse--><g class="link" data-entity-1="ent0005" data-entity-2="ent0009" data-link-type="extension" data-source-line="29" id="lnk10"><path codeLine="29" d="M482.5266,354.9224 C493.9366,384.5624 502.85,407.7241 514.16,437.1141" fill="none" id="StaffMember-backto-Nurse" style="stroke:#000000;stroke-width:1;"/><polygon fill="none" points="476.06,338.1241,476.9271,357.0779,488.126,352.7669,476.06,338.1241" style="stroke:#000000;stroke-width:1;"/></g><!--link Patient to Appointment--><g class="link" data-entity-1="ent0003" data-entity-2="ent0011" data-link-type="association" data-source-line="62" id="lnk16"><path codeLine="62" d="M235.31,347.9541 C233.95,395.7441 235.98,468.8741 255.4,528.8441 C264.12,555.7941 277.51,582.8341 292.11,607.6341" fill="none" id="Patient-Appointment" style="stroke:#000000;stroke-width:1;"/><text fill="#000000" font-family="Verdana" font-size="13" lengthAdjust="spacing" textLength="36.894" x="256.4" y="483.1111">books</text><text fill="#000000" font-family="Verdana" font-size="13" lengthAdjust="spacing" textLength="7.436" x="227.4938" y="369.5857">1</text><text fill="#000000" font-family="Verdana" font-size="13" lengthAdjust="spacing" textLength="7.163" x="279.1093" y="595.9612">*</text></g><!--link Physician to Appointment--><g class="link" data-entity-1="ent0007" data-entity-2="ent0011" data-link-type="association" data-source-line="63" id="lnk17"><path codeLine="63" d="M370.4,518.2941 C370.4,542.8141 370.4,575.5941 370.4,607.3641" fill="none" id="Physician-Appointment" style="stroke:#000000;stroke-width:1;"/><text fill="#000000" font-family="Verdana" font-size="13" lengthAdjust="spacing" textLength="46.267" x="371.4" y="573.7411">attends</text><text fill="#000000" font-family="Verdana" font-size="13" lengthAdjust="spacing" textLength="7.436" x="362.8981" y="539.7605">1</text><text fill="#000000" font-family="Verdana" font-size="13" lengthAdjust="spacing" textLength="7.163" x="363.1594" y="596.0369">*</text></g><!--link Nurse to Appointment--><g class="link" data-entity-1="ent0009" data-entity-2="ent0011" data-link-type="association" data-source-line="64" id="lnk18"><path codeLine="64" d="M502.79,518.2941 C486.3,542.8141 464.26,575.5941 442.9,607.3641" fill="none" id="Nurse-Appointment" style="stroke:#000000;stroke-width:1;"/><text fill="#000000" font-family="Verdana" font-size="13" lengthAdjust="spacing" textLength="72.2671" x="474.43" y="573.7411">coordinates</text><text fill="#000000" font-family="Verdana" font-size="13" lengthAdjust="spacing" textLength="7.436" x="491.2122" y="539.7605">1</text><text fill="#000000" font-family="Verdana" font-size="13" lengthAdjust="spacing" textLength="7.163" x="440.7571" y="596.0369">*</text></g><!--reverse link Appointment to EncounterNote--><g class="link" data-entity-1="ent0011" data-entity-2="ent0012" data-link-type="composition" data-source-line="65" id="lnk19"><path codeLine="65" d="M278.3206,834.2556 C248.6006,872.0356 224.41,902.7941 201.65,931.7341" fill="none" id="Appointment-backto-EncounterNote" style="stroke:#000000;stroke-width:1;"/><polygon fill="#000000" points="285.74,824.8241,278.8865,827.0667,278.3206,834.2556,285.1741,832.013,285.74,824.8241" style="stroke:#000000;stroke-width:1;"/><text fill="#000000" font-family="Verdana" font-size="13" lengthAdjust="spacing" textLength="53.183" x="258.87" y="869.4211">captures</text><text fill="#000000" font-family="Verdana" font-size="13" lengthAdjust="spacing" textLength="7.436" x="273.106" y="846.248">1</text><text fill="#000000" font-family="Verdana" font-size="13" lengthAdjust="spacing" textLength="7.163" x="199.4249" y="920.3269">*</text></g><!--reverse link Appointment to Prescription--><g class="link" data-entity-1="ent0011" data-entity-2="ent0013" data-link-type="aggregation" data-source-line="66" id="lnk20"><path codeLine="66" d="M370.4,836.8241 C370.4,870.6441 370.4,894.4041 370.4,922.2941" fill="none" id="Appointment-backto-Prescription" style="stroke:#000000;stroke-width:1;"/><polygon fill="none" points="370.4,824.8241,366.4,830.8241,370.4,836.8241,374.4,830.8241,370.4,824.8241" style="stroke:#000000;stroke-width:1;"/><text fill="#000000" font-family="Verdana" font-size="13" lengthAdjust="spacing" textLength="37.401" x="371.4" y="869.4211">issues</text><text fill="#000000" font-family="Verdana" font-size="13" lengthAdjust="spacing" textLength="7.436" x="363.1896" y="846.248">1</text><text fill="#000000" font-family="Verdana" font-size="13" lengthAdjust="spacing" textLength="7.163" x="362.9195" y="910.8123">*</text></g><!--reverse link Appointment to LabOrder--><g class="link" data-entity-1="ent0011" data-entity-2="ent0014" data-link-type="aggregation" data-source-line="67" id="lnk21"><path codeLine="67" d="M454.0202,834.5994 C472.8602,861.0594 485.59,878.9241 502.78,903.0541" fill="none" id="Appointment-backto-LabOrder" style="stroke:#000000;stroke-width:1;"/><polygon fill="none" points="447.06,824.8241,447.2817,832.0318,454.0202,834.5994,453.7985,827.3917,447.06,824.8241" style="stroke:#000000;stroke-width:1;"/><text fill="#000000" font-family="Verdana" font-size="13" lengthAdjust="spacing" textLength="53.209" x="478.7" y="869.4211">requests</text><text fill="#000000" font-family="Verdana" font-size="13" lengthAdjust="spacing" textLength="7.436" x="444.7606" y="846.248">1</text><text fill="#000000" font-family="Verdana" font-size="13" lengthAdjust="spacing" textLength="7.163" x="490.3103" y="891.8227">*</text></g><!--link Patient to InsurancePolicy--><g class="link" data-entity-1="ent0003" data-entity-2="ent0015" data-link-type="association" data-source-line="68" id="lnk22"><path codeLine="68" d="M172.71,347.9641 C162.61,357.2341 152.78,367.2541 144.4,377.5741 C132.48,392.2641 121.88,409.9641 113.29,426.3141" fill="none" id="Patient-InsurancePolicy" style="stroke:#000000;stroke-width:1;"/><text fill="#000000" font-family="Verdana" font-size="13" lengthAdjust="spacing" textLength="66.7421" x="145.4" y="392.4711">covered by</text><text fill="#000000" font-family="Verdana" font-size="13" lengthAdjust="spacing" textLength="7.436" x="156.8731" y="369.5969">1</text><text fill="#000000" font-family="Verdana" font-size="13" lengthAdjust="spacing" textLength="7.163" x="109.0281" y="414.8379">*</text></g><!--link Patient to Physician--><g class="link" data-entity-1="ent0003" data-entity-2="ent0007" data-link-type="association" data-source-line="69" id="lnk23"><path codeLine="69" d="M275.52,347.8541 C296.34,376.1241 321.93,410.8841 341.29,437.1741" fill="none" id="Patient-Physician" style="stroke:#000000;stroke-width:1;"/><text fill="#000000" font-family="Verdana" font-size="13" lengthAdjust="spacing" textLength="70.3951" x="309.36" y="392.4711">assigned to</text><text fill="#000000" font-family="Verdana" font-size="13" lengthAdjust="spacing" textLength="7.163" x="272.8382" y="369.4728">*</text><text fill="#000000" font-family="Verdana" font-size="13" lengthAdjust="spacing" textLength="7.163" x="328.6999" y="425.703">*</text></g><?plantuml-src VLHDRzim3BtxLsYvR2jGOBi6nO2Y7R00JLeqtUwopCH4P54JwG3UntyV_P76TjkTB5EFZ-JJazwR1s-3V5_VcJq4I5QWC7bZrlUtJvcWU32tmBWFPaq5-ALPV2EEADQR-zZ2aG8lidTIGWKcUeiXumE6Q9EjZFEM-LeaOLuBh1o5BVu2yodhDim39APWVcV6X8x9-bLXbeOr8UmrkgkztrWb7iLoJ5BUQfyQBFIZeLXI667-dkYL4u9q_1KKwAn_14UfsDHL3cbCcf0FTt04FmvgkwpvMvqUshPo8g_aGzTNVoulJoM6WbknkzqQElAsA5JHKmDmezADYKjCC9vWoZbYEGrIDemEhGAkh1DANxvq_1n1erwQyUpZ9leUJza3swPE37Ec4dSoLVeLfYvpOBcEaJ18THBOdl_dunwHKPwQE0cEy5f79dliIYXg3yMrQ5Ym0XPRnVQSYAev_Gs57QRgmyTsNO8xh4A_9fKV1FeV6nnuNPxCyJKugeD0sf0MRoSeqEu3CVAy07S6cFNoRB84x1B6rhuZfxM_S-SMn7O_5S497k5ihPxopkRtgHWy95fltf2t-GlDOa9AEBP2gu3tu6HhMo4w6Nv0mbtp25nx6Ocn2bodLg47ykYQhd1CT4JjOZv5x20lhv2Zexu7UvWUj5fxk8MBpmkZ7bfSB2RUwMO_S7Rs-9j0AmAXuAmty9imHth5KHyKu6oyqoPS31dJqzSS6wLEhoJGa30vvgL1vle_wESJN9e4FnKf_9eESzcNlOZT2tp6NppZpngf6DpRqWZz0m00?></g></svg>